<mxfile host="app.diagrams.net" agent="Mozilla/5.0 (Windows NT 10.0; Win64; x64) AppleWebKit/537.36 (KHTML, like Gecko) Chrome/130.0.0.0 Safari/537.36" version="24.8.6">
  <diagram name="Page-1" id="iad6M7SJFBZVvGmsRlp6">
    <mxGraphModel dx="4590" dy="2137" grid="1" gridSize="10" guides="1" tooltips="1" connect="1" arrows="1" fold="1" page="1" pageScale="1" pageWidth="1100" pageHeight="850" math="0" shadow="0">
      <root>
        <mxCell id="0" />
        <mxCell id="1" parent="0" />
        <mxCell id="_Os3ovWYdSZybvVUTS0H-1" value="Customer" style="rounded=0;whiteSpace=wrap;html=1;fillColor=#f5f5f5;strokeColor=#666666;fontColor=#333333;" parent="1" vertex="1">
          <mxGeometry x="-500" y="166.25" width="170" height="80" as="geometry" />
        </mxCell>
        <mxCell id="_Os3ovWYdSZybvVUTS0H-2" value="&lt;u&gt;Customer_ID&lt;/u&gt;" style="ellipse;whiteSpace=wrap;html=1;" parent="1" vertex="1">
          <mxGeometry x="-574.49" y="71.25" width="80" height="50" as="geometry" />
        </mxCell>
        <mxCell id="_Os3ovWYdSZybvVUTS0H-3" value="Address" style="ellipse;whiteSpace=wrap;html=1;" parent="1" vertex="1">
          <mxGeometry x="-490" y="81.25" width="70" height="30" as="geometry" />
        </mxCell>
        <mxCell id="_Os3ovWYdSZybvVUTS0H-4" value="Contact_Info" style="ellipse;whiteSpace=wrap;html=1;" parent="1" vertex="1">
          <mxGeometry x="-345" y="91.25" width="100" height="35" as="geometry" />
        </mxCell>
        <mxCell id="_Os3ovWYdSZybvVUTS0H-5" value="Points" style="ellipse;whiteSpace=wrap;html=1;" parent="1" vertex="1">
          <mxGeometry x="-280" y="130" width="67.5" height="40" as="geometry" />
        </mxCell>
        <mxCell id="_Os3ovWYdSZybvVUTS0H-9" value="" style="endArrow=none;html=1;rounded=0;entryX=0;entryY=1;entryDx=0;entryDy=0;exitX=1;exitY=0;exitDx=0;exitDy=0;" parent="1" source="_Os3ovWYdSZybvVUTS0H-1" target="_Os3ovWYdSZybvVUTS0H-5" edge="1">
          <mxGeometry relative="1" as="geometry">
            <mxPoint x="-334.49" y="256.25" as="sourcePoint" />
            <mxPoint x="-174.49" y="256.25" as="targetPoint" />
          </mxGeometry>
        </mxCell>
        <mxCell id="_Os3ovWYdSZybvVUTS0H-12" value="" style="endArrow=none;html=1;rounded=0;exitX=0;exitY=1;exitDx=0;exitDy=0;entryX=1;entryY=0;entryDx=0;entryDy=0;" parent="1" source="_Os3ovWYdSZybvVUTS0H-4" target="_Os3ovWYdSZybvVUTS0H-1" edge="1">
          <mxGeometry relative="1" as="geometry">
            <mxPoint x="-334.49" y="256.25" as="sourcePoint" />
            <mxPoint x="-174.49" y="256.25" as="targetPoint" />
          </mxGeometry>
        </mxCell>
        <mxCell id="_Os3ovWYdSZybvVUTS0H-13" value="" style="endArrow=none;html=1;rounded=0;entryX=0.5;entryY=1;entryDx=0;entryDy=0;exitX=0.5;exitY=0;exitDx=0;exitDy=0;" parent="1" source="_Os3ovWYdSZybvVUTS0H-1" target="_Os3ovWYdSZybvVUTS0H-3" edge="1">
          <mxGeometry relative="1" as="geometry">
            <mxPoint x="-334.49" y="256.25" as="sourcePoint" />
            <mxPoint x="-174.49" y="256.25" as="targetPoint" />
          </mxGeometry>
        </mxCell>
        <mxCell id="_Os3ovWYdSZybvVUTS0H-14" value="" style="endArrow=none;html=1;rounded=0;entryX=1;entryY=1;entryDx=0;entryDy=0;exitX=0.25;exitY=0;exitDx=0;exitDy=0;" parent="1" source="_Os3ovWYdSZybvVUTS0H-1" target="_Os3ovWYdSZybvVUTS0H-2" edge="1">
          <mxGeometry relative="1" as="geometry">
            <mxPoint x="-334.49" y="256.25" as="sourcePoint" />
            <mxPoint x="-174.49" y="256.25" as="targetPoint" />
          </mxGeometry>
        </mxCell>
        <mxCell id="_Os3ovWYdSZybvVUTS0H-15" value="" style="endArrow=none;html=1;rounded=0;exitX=1;exitY=0.5;exitDx=0;exitDy=0;entryX=0;entryY=0;entryDx=0;entryDy=0;" parent="1" source="15D66pHCM-ideDCtoqZD-92" target="_Os3ovWYdSZybvVUTS0H-1" edge="1">
          <mxGeometry relative="1" as="geometry">
            <mxPoint x="-524.49" y="196.25" as="sourcePoint" />
            <mxPoint x="-174.49" y="256.25" as="targetPoint" />
          </mxGeometry>
        </mxCell>
        <mxCell id="_Os3ovWYdSZybvVUTS0H-20" value="Ingredient" style="rounded=0;whiteSpace=wrap;html=1;" parent="1" vertex="1">
          <mxGeometry x="1125" y="206.25" width="170" height="80" as="geometry" />
        </mxCell>
        <mxCell id="_Os3ovWYdSZybvVUTS0H-21" value="Name" style="ellipse;whiteSpace=wrap;html=1;" parent="1" vertex="1">
          <mxGeometry x="1030" y="126.25" width="80" height="50" as="geometry" />
        </mxCell>
        <mxCell id="_Os3ovWYdSZybvVUTS0H-22" value="Stock_Qty" style="ellipse;whiteSpace=wrap;html=1;" parent="1" vertex="1">
          <mxGeometry x="1125" y="116.25" width="90" height="50" as="geometry" />
        </mxCell>
        <mxCell id="_Os3ovWYdSZybvVUTS0H-23" value="Minimum_Qty" style="ellipse;whiteSpace=wrap;html=1;" parent="1" vertex="1">
          <mxGeometry x="1225" y="122.5" width="90" height="50" as="geometry" />
        </mxCell>
        <mxCell id="_Os3ovWYdSZybvVUTS0H-24" value="&lt;u&gt;Inventory_ID&lt;/u&gt;" style="ellipse;whiteSpace=wrap;html=1;" parent="1" vertex="1">
          <mxGeometry x="1325" y="136.25" width="90" height="40" as="geometry" />
        </mxCell>
        <mxCell id="_Os3ovWYdSZybvVUTS0H-27" value="" style="endArrow=none;html=1;rounded=0;entryX=0;entryY=1;entryDx=0;entryDy=0;exitX=1;exitY=0;exitDx=0;exitDy=0;" parent="1" source="_Os3ovWYdSZybvVUTS0H-20" target="_Os3ovWYdSZybvVUTS0H-24" edge="1">
          <mxGeometry relative="1" as="geometry">
            <mxPoint x="1290" y="290" as="sourcePoint" />
            <mxPoint x="1450" y="290" as="targetPoint" />
          </mxGeometry>
        </mxCell>
        <mxCell id="_Os3ovWYdSZybvVUTS0H-29" value="" style="endArrow=none;html=1;rounded=0;exitX=0.5;exitY=1;exitDx=0;exitDy=0;entryX=0.75;entryY=0;entryDx=0;entryDy=0;" parent="1" source="_Os3ovWYdSZybvVUTS0H-23" target="_Os3ovWYdSZybvVUTS0H-20" edge="1">
          <mxGeometry relative="1" as="geometry">
            <mxPoint x="1290" y="290" as="sourcePoint" />
            <mxPoint x="1450" y="290" as="targetPoint" />
          </mxGeometry>
        </mxCell>
        <mxCell id="_Os3ovWYdSZybvVUTS0H-30" value="" style="endArrow=none;html=1;rounded=0;entryX=0.5;entryY=1;entryDx=0;entryDy=0;exitX=0.25;exitY=0;exitDx=0;exitDy=0;" parent="1" source="_Os3ovWYdSZybvVUTS0H-20" target="_Os3ovWYdSZybvVUTS0H-22" edge="1">
          <mxGeometry relative="1" as="geometry">
            <mxPoint x="1290" y="290" as="sourcePoint" />
            <mxPoint x="1450" y="290" as="targetPoint" />
          </mxGeometry>
        </mxCell>
        <mxCell id="_Os3ovWYdSZybvVUTS0H-31" value="" style="endArrow=none;html=1;rounded=0;entryX=1;entryY=1;entryDx=0;entryDy=0;exitX=0;exitY=0;exitDx=0;exitDy=0;" parent="1" source="_Os3ovWYdSZybvVUTS0H-20" target="_Os3ovWYdSZybvVUTS0H-21" edge="1">
          <mxGeometry relative="1" as="geometry">
            <mxPoint x="1290" y="290" as="sourcePoint" />
            <mxPoint x="1450" y="290" as="targetPoint" />
          </mxGeometry>
        </mxCell>
        <mxCell id="_Os3ovWYdSZybvVUTS0H-33" value="Name" style="ellipse;whiteSpace=wrap;html=1;align=center;" parent="1" vertex="1">
          <mxGeometry x="-439.48999999999995" y="261.25" width="60" height="30" as="geometry" />
        </mxCell>
        <mxCell id="_Os3ovWYdSZybvVUTS0H-34" value="" style="endArrow=none;html=1;rounded=0;exitX=0.5;exitY=0;exitDx=0;exitDy=0;" parent="1" source="_Os3ovWYdSZybvVUTS0H-33" target="_Os3ovWYdSZybvVUTS0H-1" edge="1">
          <mxGeometry relative="1" as="geometry">
            <mxPoint x="-409" y="280" as="sourcePoint" />
            <mxPoint x="-410" y="250" as="targetPoint" />
          </mxGeometry>
        </mxCell>
        <mxCell id="_Os3ovWYdSZybvVUTS0H-35" value="Supplier" style="rounded=0;whiteSpace=wrap;html=1;shadow=0;" parent="1" vertex="1">
          <mxGeometry x="1065" y="675" width="170" height="80" as="geometry" />
        </mxCell>
        <mxCell id="_Os3ovWYdSZybvVUTS0H-36" value="&lt;u&gt;Supplier_ID&lt;/u&gt;" style="ellipse;whiteSpace=wrap;html=1;shadow=0;" parent="1" vertex="1">
          <mxGeometry x="1020" y="780" width="80" height="50" as="geometry" />
        </mxCell>
        <mxCell id="_Os3ovWYdSZybvVUTS0H-37" value="&amp;nbsp;Name" style="ellipse;whiteSpace=wrap;html=1;shadow=0;" parent="1" vertex="1">
          <mxGeometry x="1130" y="800" width="90" height="50" as="geometry" />
        </mxCell>
        <mxCell id="_Os3ovWYdSZybvVUTS0H-38" value="Contact_Info" style="ellipse;whiteSpace=wrap;html=1;shadow=0;" parent="1" vertex="1">
          <mxGeometry x="1235" y="809.54" width="90" height="50" as="geometry" />
        </mxCell>
        <mxCell id="_Os3ovWYdSZybvVUTS0H-39" value="Contract_Until" style="ellipse;whiteSpace=wrap;html=1;shadow=0;" parent="1" vertex="1">
          <mxGeometry x="1295" y="460.86" width="90" height="40" as="geometry" />
        </mxCell>
        <mxCell id="_Os3ovWYdSZybvVUTS0H-40" value="" style="endArrow=none;html=1;rounded=0;entryX=0;entryY=0;entryDx=0;entryDy=0;exitX=1;exitY=1;exitDx=0;exitDy=0;shadow=0;" parent="1" source="_Os3ovWYdSZybvVUTS0H-44" target="_Os3ovWYdSZybvVUTS0H-39" edge="1">
          <mxGeometry relative="1" as="geometry">
            <mxPoint x="1300" y="617.5" as="sourcePoint" />
            <mxPoint x="1460" y="617.5" as="targetPoint" />
          </mxGeometry>
        </mxCell>
        <mxCell id="_Os3ovWYdSZybvVUTS0H-41" value="" style="endArrow=none;html=1;rounded=0;exitX=0.5;exitY=0;exitDx=0;exitDy=0;entryX=1;entryY=1;entryDx=0;entryDy=0;shadow=0;" parent="1" source="_Os3ovWYdSZybvVUTS0H-38" target="_Os3ovWYdSZybvVUTS0H-35" edge="1">
          <mxGeometry relative="1" as="geometry">
            <mxPoint x="1195" y="749.54" as="sourcePoint" />
            <mxPoint x="1355" y="749.54" as="targetPoint" />
          </mxGeometry>
        </mxCell>
        <mxCell id="_Os3ovWYdSZybvVUTS0H-42" value="" style="endArrow=none;html=1;rounded=0;entryX=0.5;entryY=0;entryDx=0;entryDy=0;exitX=0.75;exitY=1;exitDx=0;exitDy=0;shadow=0;" parent="1" source="_Os3ovWYdSZybvVUTS0H-35" target="_Os3ovWYdSZybvVUTS0H-37" edge="1">
          <mxGeometry relative="1" as="geometry">
            <mxPoint x="1195" y="749.54" as="sourcePoint" />
            <mxPoint x="1355" y="749.54" as="targetPoint" />
          </mxGeometry>
        </mxCell>
        <mxCell id="_Os3ovWYdSZybvVUTS0H-43" value="" style="endArrow=none;html=1;rounded=0;entryX=0.5;entryY=0;entryDx=0;entryDy=0;exitX=0.5;exitY=1;exitDx=0;exitDy=0;shadow=0;" parent="1" source="_Os3ovWYdSZybvVUTS0H-35" target="_Os3ovWYdSZybvVUTS0H-36" edge="1">
          <mxGeometry relative="1" as="geometry">
            <mxPoint x="1195" y="749.54" as="sourcePoint" />
            <mxPoint x="1355" y="749.54" as="targetPoint" />
          </mxGeometry>
        </mxCell>
        <mxCell id="_Os3ovWYdSZybvVUTS0H-44" value="Supplies" style="shape=rhombus;perimeter=rhombusPerimeter;whiteSpace=wrap;html=1;align=center;" parent="1" vertex="1">
          <mxGeometry x="1130" y="389.33" width="160" height="90" as="geometry" />
        </mxCell>
        <mxCell id="_Os3ovWYdSZybvVUTS0H-47" value="" style="endArrow=none;html=1;rounded=0;entryX=0.5;entryY=1;entryDx=0;entryDy=0;exitX=0.846;exitY=-0.006;exitDx=0;exitDy=0;exitPerimeter=0;" parent="1" source="_Os3ovWYdSZybvVUTS0H-35" target="_Os3ovWYdSZybvVUTS0H-44" edge="1">
          <mxGeometry relative="1" as="geometry">
            <mxPoint x="1070" y="540" as="sourcePoint" />
            <mxPoint x="950" y="480" as="targetPoint" />
          </mxGeometry>
        </mxCell>
        <mxCell id="_Os3ovWYdSZybvVUTS0H-48" value="M" style="resizable=0;html=1;whiteSpace=wrap;align=right;verticalAlign=bottom;" parent="_Os3ovWYdSZybvVUTS0H-47" connectable="0" vertex="1">
          <mxGeometry x="1" relative="1" as="geometry">
            <mxPoint x="15" y="19" as="offset" />
          </mxGeometry>
        </mxCell>
        <mxCell id="_Os3ovWYdSZybvVUTS0H-49" value="Price" style="ellipse;whiteSpace=wrap;html=1;align=center;dashed=1;" parent="1" vertex="1">
          <mxGeometry x="1330" y="192.5" width="100" height="40" as="geometry" />
        </mxCell>
        <mxCell id="_Os3ovWYdSZybvVUTS0H-50" value="" style="endArrow=none;html=1;rounded=0;exitX=1;exitY=0.25;exitDx=0;exitDy=0;entryX=0;entryY=0.5;entryDx=0;entryDy=0;" parent="1" source="_Os3ovWYdSZybvVUTS0H-20" target="_Os3ovWYdSZybvVUTS0H-49" edge="1">
          <mxGeometry relative="1" as="geometry">
            <mxPoint x="1030" y="425" as="sourcePoint" />
            <mxPoint x="1190" y="425" as="targetPoint" />
          </mxGeometry>
        </mxCell>
        <mxCell id="_Os3ovWYdSZybvVUTS0H-51" value="Delivery_Time" style="ellipse;whiteSpace=wrap;html=1;align=center;" parent="1" vertex="1">
          <mxGeometry x="1340" y="414.33" width="100" height="40" as="geometry" />
        </mxCell>
        <mxCell id="_Os3ovWYdSZybvVUTS0H-52" value="" style="endArrow=none;html=1;rounded=0;entryX=0;entryY=0.5;entryDx=0;entryDy=0;exitX=1;exitY=0.5;exitDx=0;exitDy=0;" parent="1" source="_Os3ovWYdSZybvVUTS0H-44" target="_Os3ovWYdSZybvVUTS0H-51" edge="1">
          <mxGeometry relative="1" as="geometry">
            <mxPoint x="1280" y="417.5" as="sourcePoint" />
            <mxPoint x="1240" y="467.5" as="targetPoint" />
          </mxGeometry>
        </mxCell>
        <mxCell id="_Os3ovWYdSZybvVUTS0H-53" value="Cost" style="ellipse;whiteSpace=wrap;html=1;align=center;" parent="1" vertex="1">
          <mxGeometry x="1295" y="367.5" width="100" height="40" as="geometry" />
        </mxCell>
        <mxCell id="_Os3ovWYdSZybvVUTS0H-54" value="" style="endArrow=none;html=1;rounded=0;exitX=0;exitY=1;exitDx=0;exitDy=0;entryX=0.81;entryY=0.322;entryDx=0;entryDy=0;entryPerimeter=0;" parent="1" source="_Os3ovWYdSZybvVUTS0H-53" target="_Os3ovWYdSZybvVUTS0H-44" edge="1">
          <mxGeometry relative="1" as="geometry">
            <mxPoint x="1080" y="467.5" as="sourcePoint" />
            <mxPoint x="1270" y="407.5" as="targetPoint" />
          </mxGeometry>
        </mxCell>
        <mxCell id="_Os3ovWYdSZybvVUTS0H-56" value="" style="endArrow=none;html=1;rounded=0;entryX=1;entryY=0.25;entryDx=0;entryDy=0;exitX=0;exitY=1;exitDx=0;exitDy=0;" parent="1" source="Mz4xzUT4oG2Xsr-lTTY3-5" target="_Os3ovWYdSZybvVUTS0H-35" edge="1">
          <mxGeometry relative="1" as="geometry">
            <mxPoint x="1260" y="695" as="sourcePoint" />
            <mxPoint x="1135" y="599.54" as="targetPoint" />
          </mxGeometry>
        </mxCell>
        <mxCell id="_Os3ovWYdSZybvVUTS0H-57" value="Meal" style="whiteSpace=wrap;html=1;align=center;" parent="1" vertex="1">
          <mxGeometry x="727.5" y="431.72" width="170" height="75" as="geometry" />
        </mxCell>
        <mxCell id="_Os3ovWYdSZybvVUTS0H-58" value="IS_MADE_OF" style="shape=rhombus;perimeter=rhombusPerimeter;whiteSpace=wrap;html=1;align=center;" parent="1" vertex="1">
          <mxGeometry x="930" y="250" width="120" height="60" as="geometry" />
        </mxCell>
        <mxCell id="_Os3ovWYdSZybvVUTS0H-60" value="Quantity" style="ellipse;whiteSpace=wrap;html=1;align=center;" parent="1" vertex="1">
          <mxGeometry x="940" y="196.25" width="100" height="40" as="geometry" />
        </mxCell>
        <mxCell id="_Os3ovWYdSZybvVUTS0H-61" value="" style="endArrow=none;html=1;rounded=0;entryX=0.5;entryY=1;entryDx=0;entryDy=0;exitX=0.5;exitY=0;exitDx=0;exitDy=0;" parent="1" source="_Os3ovWYdSZybvVUTS0H-58" target="_Os3ovWYdSZybvVUTS0H-60" edge="1">
          <mxGeometry relative="1" as="geometry">
            <mxPoint x="865" y="281.25" as="sourcePoint" />
            <mxPoint x="865" y="266.25" as="targetPoint" />
          </mxGeometry>
        </mxCell>
        <mxCell id="_Os3ovWYdSZybvVUTS0H-64" value="" style="endArrow=none;html=1;rounded=0;entryX=1;entryY=0.5;entryDx=0;entryDy=0;exitX=0;exitY=0.914;exitDx=0;exitDy=0;exitPerimeter=0;" parent="1" source="_Os3ovWYdSZybvVUTS0H-20" target="_Os3ovWYdSZybvVUTS0H-58" edge="1">
          <mxGeometry relative="1" as="geometry">
            <mxPoint x="560" y="450" as="sourcePoint" />
            <mxPoint x="720" y="450" as="targetPoint" />
            <Array as="points" />
          </mxGeometry>
        </mxCell>
        <mxCell id="_Os3ovWYdSZybvVUTS0H-65" value="M" style="resizable=0;html=1;whiteSpace=wrap;align=right;verticalAlign=bottom;" parent="_Os3ovWYdSZybvVUTS0H-64" connectable="0" vertex="1">
          <mxGeometry x="1" relative="1" as="geometry">
            <mxPoint x="5" y="-4" as="offset" />
          </mxGeometry>
        </mxCell>
        <mxCell id="_Os3ovWYdSZybvVUTS0H-66" value="Cost" style="ellipse;whiteSpace=wrap;html=1;align=center;dashed=1;" parent="1" vertex="1">
          <mxGeometry x="955" y="327.5" width="70" height="30" as="geometry" />
        </mxCell>
        <mxCell id="_Os3ovWYdSZybvVUTS0H-67" value="" style="endArrow=none;html=1;rounded=0;entryX=0.5;entryY=1;entryDx=0;entryDy=0;exitX=0.5;exitY=0;exitDx=0;exitDy=0;" parent="1" source="_Os3ovWYdSZybvVUTS0H-66" target="_Os3ovWYdSZybvVUTS0H-58" edge="1">
          <mxGeometry relative="1" as="geometry">
            <mxPoint x="560" y="450" as="sourcePoint" />
            <mxPoint x="720" y="450" as="targetPoint" />
          </mxGeometry>
        </mxCell>
        <mxCell id="_Os3ovWYdSZybvVUTS0H-68" value="&lt;u&gt;Meal_Name&lt;/u&gt;" style="ellipse;whiteSpace=wrap;html=1;align=center;" parent="1" vertex="1">
          <mxGeometry x="920" y="464.22" width="100" height="40" as="geometry" />
        </mxCell>
        <mxCell id="_Os3ovWYdSZybvVUTS0H-69" value="Price" style="ellipse;whiteSpace=wrap;html=1;" parent="1" vertex="1">
          <mxGeometry x="830" y="544.22" width="80" height="50" as="geometry" />
        </mxCell>
        <mxCell id="_Os3ovWYdSZybvVUTS0H-70" value="" style="endArrow=none;html=1;rounded=0;entryX=0.5;entryY=0;entryDx=0;entryDy=0;exitX=0.5;exitY=1;exitDx=0;exitDy=0;" parent="1" source="_Os3ovWYdSZybvVUTS0H-57" target="_Os3ovWYdSZybvVUTS0H-69" edge="1">
          <mxGeometry relative="1" as="geometry">
            <mxPoint x="850" y="524.22" as="sourcePoint" />
            <mxPoint x="1170" y="759.22" as="targetPoint" />
          </mxGeometry>
        </mxCell>
        <mxCell id="_Os3ovWYdSZybvVUTS0H-71" value="" style="endArrow=none;html=1;rounded=0;entryX=0;entryY=0;entryDx=0;entryDy=0;exitX=1;exitY=0.5;exitDx=0;exitDy=0;" parent="1" source="_Os3ovWYdSZybvVUTS0H-57" target="_Os3ovWYdSZybvVUTS0H-68" edge="1">
          <mxGeometry relative="1" as="geometry">
            <mxPoint x="770" y="424.22" as="sourcePoint" />
            <mxPoint x="930" y="424.22" as="targetPoint" />
          </mxGeometry>
        </mxCell>
        <mxCell id="_Os3ovWYdSZybvVUTS0H-77" value="Waiter" style="whiteSpace=wrap;html=1;align=center;fillColor=#f5f5f5;strokeColor=#666666;fontColor=#333333;" parent="1" vertex="1">
          <mxGeometry x="-859.53" y="533.51" width="164.49" height="60" as="geometry" />
        </mxCell>
        <mxCell id="_Os3ovWYdSZybvVUTS0H-78" value="Name" style="ellipse;whiteSpace=wrap;html=1;align=center;" parent="1" vertex="1">
          <mxGeometry x="-960" y="469.21999999999997" width="80" height="35" as="geometry" />
        </mxCell>
        <mxCell id="_Os3ovWYdSZybvVUTS0H-79" value="&lt;u&gt;Employee_ID&lt;/u&gt;" style="ellipse;whiteSpace=wrap;html=1;" parent="1" vertex="1">
          <mxGeometry x="-779.9600000000002" y="445" width="80" height="50" as="geometry" />
        </mxCell>
        <mxCell id="_Os3ovWYdSZybvVUTS0H-80" value="" style="endArrow=none;html=1;rounded=0;exitX=0.5;exitY=1;exitDx=0;exitDy=0;entryX=0.75;entryY=0;entryDx=0;entryDy=0;" parent="1" source="_Os3ovWYdSZybvVUTS0H-79" target="_Os3ovWYdSZybvVUTS0H-77" edge="1">
          <mxGeometry relative="1" as="geometry">
            <mxPoint x="-620" y="511.48" as="sourcePoint" />
            <mxPoint x="-460" y="511.48" as="targetPoint" />
          </mxGeometry>
        </mxCell>
        <mxCell id="_Os3ovWYdSZybvVUTS0H-81" value="" style="endArrow=none;html=1;rounded=0;exitX=1;exitY=1;exitDx=0;exitDy=0;" parent="1" source="_Os3ovWYdSZybvVUTS0H-78" edge="1">
          <mxGeometry relative="1" as="geometry">
            <mxPoint x="-620" y="511.48" as="sourcePoint" />
            <mxPoint x="-860" y="550" as="targetPoint" />
          </mxGeometry>
        </mxCell>
        <mxCell id="_Os3ovWYdSZybvVUTS0H-82" value="Salary" style="ellipse;whiteSpace=wrap;html=1;align=center;" parent="1" vertex="1">
          <mxGeometry x="-1037.03" y="620" width="100" height="40" as="geometry" />
        </mxCell>
        <mxCell id="_Os3ovWYdSZybvVUTS0H-83" value="" style="endArrow=none;html=1;rounded=0;exitX=0.5;exitY=0;exitDx=0;exitDy=0;entryX=0;entryY=1;entryDx=0;entryDy=0;" parent="1" source="_Os3ovWYdSZybvVUTS0H-82" target="_Os3ovWYdSZybvVUTS0H-77" edge="1">
          <mxGeometry relative="1" as="geometry">
            <mxPoint x="-920" y="657.73" as="sourcePoint" />
            <mxPoint x="-460" y="511.48" as="targetPoint" />
          </mxGeometry>
        </mxCell>
        <mxCell id="_Os3ovWYdSZybvVUTS0H-84" value="Role" style="ellipse;whiteSpace=wrap;html=1;align=center;" parent="1" vertex="1">
          <mxGeometry x="-674.4899999999999" y="480.86" width="100" height="40" as="geometry" />
        </mxCell>
        <mxCell id="_Os3ovWYdSZybvVUTS0H-87" value="" style="endArrow=none;html=1;rounded=0;exitX=0.5;exitY=1;exitDx=0;exitDy=0;entryX=1;entryY=0;entryDx=0;entryDy=0;" parent="1" source="_Os3ovWYdSZybvVUTS0H-84" target="_Os3ovWYdSZybvVUTS0H-77" edge="1">
          <mxGeometry relative="1" as="geometry">
            <mxPoint x="-620" y="511.48" as="sourcePoint" />
            <mxPoint x="-460" y="511.48" as="targetPoint" />
          </mxGeometry>
        </mxCell>
        <mxCell id="_Os3ovWYdSZybvVUTS0H-88" value="SUPERVISION" style="shape=rhombus;perimeter=rhombusPerimeter;whiteSpace=wrap;html=1;align=center;fillColor=#f5f5f5;strokeColor=#666666;fontColor=#333333;" parent="1" vertex="1">
          <mxGeometry x="-1140" y="517.73" width="120" height="60" as="geometry" />
        </mxCell>
        <mxCell id="_Os3ovWYdSZybvVUTS0H-89" value="" style="endArrow=none;html=1;rounded=0;entryX=0.5;entryY=0;entryDx=0;entryDy=0;exitX=0;exitY=0.25;exitDx=0;exitDy=0;" parent="1" source="_Os3ovWYdSZybvVUTS0H-77" target="_Os3ovWYdSZybvVUTS0H-88" edge="1">
          <mxGeometry relative="1" as="geometry">
            <mxPoint x="-750" y="551.48" as="sourcePoint" />
            <mxPoint x="-590" y="551.48" as="targetPoint" />
          </mxGeometry>
        </mxCell>
        <mxCell id="_Os3ovWYdSZybvVUTS0H-90" value="N" style="resizable=0;html=1;whiteSpace=wrap;align=right;verticalAlign=bottom;" parent="_Os3ovWYdSZybvVUTS0H-89" connectable="0" vertex="1">
          <mxGeometry x="1" relative="1" as="geometry">
            <mxPoint x="-5" y="3" as="offset" />
          </mxGeometry>
        </mxCell>
        <mxCell id="_Os3ovWYdSZybvVUTS0H-94" value="Supervisee" style="text;html=1;align=center;verticalAlign=middle;whiteSpace=wrap;rounded=0;" parent="1" vertex="1">
          <mxGeometry x="-1055.04" y="498.98" width="60" height="30" as="geometry" />
        </mxCell>
        <mxCell id="_Os3ovWYdSZybvVUTS0H-97" value="" style="endArrow=none;html=1;rounded=0;entryX=0.5;entryY=1;entryDx=0;entryDy=0;exitX=0;exitY=0.25;exitDx=0;exitDy=0;" parent="1" source="_Os3ovWYdSZybvVUTS0H-77" target="_Os3ovWYdSZybvVUTS0H-88" edge="1">
          <mxGeometry relative="1" as="geometry">
            <mxPoint x="-750" y="551.48" as="sourcePoint" />
            <mxPoint x="-590" y="551.48" as="targetPoint" />
          </mxGeometry>
        </mxCell>
        <mxCell id="_Os3ovWYdSZybvVUTS0H-98" value="1" style="resizable=0;html=1;whiteSpace=wrap;align=right;verticalAlign=bottom;" parent="_Os3ovWYdSZybvVUTS0H-97" connectable="0" vertex="1">
          <mxGeometry x="1" relative="1" as="geometry">
            <mxPoint x="-10" y="10" as="offset" />
          </mxGeometry>
        </mxCell>
        <mxCell id="_Os3ovWYdSZybvVUTS0H-99" value="Supervisor" style="text;html=1;align=center;verticalAlign=middle;whiteSpace=wrap;rounded=0;" parent="1" vertex="1">
          <mxGeometry x="-1062.5" y="568.51" width="60" height="30" as="geometry" />
        </mxCell>
        <mxCell id="_Os3ovWYdSZybvVUTS0H-101" value="" style="shape=link;html=1;rounded=0;entryX=0;entryY=0.5;entryDx=0;entryDy=0;exitX=1;exitY=0;exitDx=0;exitDy=0;" parent="1" source="_Os3ovWYdSZybvVUTS0H-57" target="_Os3ovWYdSZybvVUTS0H-58" edge="1">
          <mxGeometry relative="1" as="geometry">
            <mxPoint x="670" y="470" as="sourcePoint" />
            <mxPoint x="830" y="470" as="targetPoint" />
            <Array as="points">
              <mxPoint x="900" y="280" />
            </Array>
          </mxGeometry>
        </mxCell>
        <mxCell id="_Os3ovWYdSZybvVUTS0H-102" value="N" style="resizable=0;html=1;whiteSpace=wrap;align=right;verticalAlign=bottom;" parent="_Os3ovWYdSZybvVUTS0H-101" connectable="0" vertex="1">
          <mxGeometry x="1" relative="1" as="geometry">
            <mxPoint x="10" y="26" as="offset" />
          </mxGeometry>
        </mxCell>
        <mxCell id="_Os3ovWYdSZybvVUTS0H-105" value="" style="shape=link;html=1;rounded=0;exitX=0.5;exitY=0;exitDx=0;exitDy=0;entryX=0.5;entryY=1;entryDx=0;entryDy=0;" parent="1" source="_Os3ovWYdSZybvVUTS0H-44" target="_Os3ovWYdSZybvVUTS0H-20" edge="1">
          <mxGeometry relative="1" as="geometry">
            <mxPoint x="770" y="480" as="sourcePoint" />
            <mxPoint x="1215" y="270" as="targetPoint" />
          </mxGeometry>
        </mxCell>
        <mxCell id="_Os3ovWYdSZybvVUTS0H-106" value="N" style="resizable=0;html=1;whiteSpace=wrap;align=right;verticalAlign=bottom;" parent="_Os3ovWYdSZybvVUTS0H-105" connectable="0" vertex="1">
          <mxGeometry x="1" relative="1" as="geometry">
            <mxPoint x="-10" y="111" as="offset" />
          </mxGeometry>
        </mxCell>
        <mxCell id="15D66pHCM-ideDCtoqZD-2" value="Category" style="ellipse;whiteSpace=wrap;html=1;" parent="1" vertex="1">
          <mxGeometry x="760" y="534.22" width="70" height="30" as="geometry" />
        </mxCell>
        <mxCell id="15D66pHCM-ideDCtoqZD-3" value="" style="endArrow=none;html=1;rounded=0;exitX=0.5;exitY=0;exitDx=0;exitDy=0;entryX=0.25;entryY=1;entryDx=0;entryDy=0;" parent="1" source="15D66pHCM-ideDCtoqZD-2" target="_Os3ovWYdSZybvVUTS0H-57" edge="1">
          <mxGeometry width="50" height="50" relative="1" as="geometry">
            <mxPoint x="780" y="424.22" as="sourcePoint" />
            <mxPoint x="830" y="374.22" as="targetPoint" />
          </mxGeometry>
        </mxCell>
        <mxCell id="15D66pHCM-ideDCtoqZD-5" value="" style="endArrow=none;html=1;rounded=0;entryX=1;entryY=1;entryDx=0;entryDy=0;exitX=0;exitY=0;exitDx=0;exitDy=0;" parent="1" source="Mz4xzUT4oG2Xsr-lTTY3-1" target="_Os3ovWYdSZybvVUTS0H-57" edge="1">
          <mxGeometry width="50" height="50" relative="1" as="geometry">
            <mxPoint x="931.7157287525379" y="536.5423304703361" as="sourcePoint" />
            <mxPoint x="770" y="384.22" as="targetPoint" />
          </mxGeometry>
        </mxCell>
        <mxCell id="15D66pHCM-ideDCtoqZD-7" value="Description" style="ellipse;whiteSpace=wrap;html=1;" parent="1" vertex="1">
          <mxGeometry x="710" y="564.22" width="80" height="50" as="geometry" />
        </mxCell>
        <mxCell id="15D66pHCM-ideDCtoqZD-8" value="" style="endArrow=none;html=1;rounded=0;exitX=0;exitY=1;exitDx=0;exitDy=0;entryX=0.5;entryY=0;entryDx=0;entryDy=0;" parent="1" source="_Os3ovWYdSZybvVUTS0H-57" target="15D66pHCM-ideDCtoqZD-7" edge="1">
          <mxGeometry width="50" height="50" relative="1" as="geometry">
            <mxPoint x="720" y="434.22" as="sourcePoint" />
            <mxPoint x="770" y="384.22" as="targetPoint" />
          </mxGeometry>
        </mxCell>
        <mxCell id="15D66pHCM-ideDCtoqZD-10" value="Address" style="ellipse;whiteSpace=wrap;html=1;shadow=0;" parent="1" vertex="1">
          <mxGeometry x="1295" y="759.54" width="90" height="50" as="geometry" />
        </mxCell>
        <mxCell id="15D66pHCM-ideDCtoqZD-11" value="" style="endArrow=none;html=1;rounded=0;entryX=0;entryY=0;entryDx=0;entryDy=0;exitX=1;exitY=0.75;exitDx=0;exitDy=0;" parent="1" source="_Os3ovWYdSZybvVUTS0H-35" target="15D66pHCM-ideDCtoqZD-10" edge="1">
          <mxGeometry width="50" height="50" relative="1" as="geometry">
            <mxPoint x="805" y="609.54" as="sourcePoint" />
            <mxPoint x="855" y="559.54" as="targetPoint" />
          </mxGeometry>
        </mxCell>
        <mxCell id="15D66pHCM-ideDCtoqZD-29" value="Hire_Date" style="ellipse;whiteSpace=wrap;html=1;align=center;" parent="1" vertex="1">
          <mxGeometry x="-919.9599999999999" y="607.58" width="100" height="40" as="geometry" />
        </mxCell>
        <mxCell id="15D66pHCM-ideDCtoqZD-30" value="" style="endArrow=none;html=1;rounded=0;exitX=0.25;exitY=1;exitDx=0;exitDy=0;entryX=0.5;entryY=0;entryDx=0;entryDy=0;" parent="1" source="_Os3ovWYdSZybvVUTS0H-77" target="15D66pHCM-ideDCtoqZD-29" edge="1">
          <mxGeometry relative="1" as="geometry">
            <mxPoint x="-620" y="661.48" as="sourcePoint" />
            <mxPoint x="-460" y="661.48" as="targetPoint" />
          </mxGeometry>
        </mxCell>
        <mxCell id="15D66pHCM-ideDCtoqZD-32" value="CV" style="ellipse;whiteSpace=wrap;html=1;align=center;" parent="1" vertex="1">
          <mxGeometry x="-939.92" y="675" width="100" height="40" as="geometry" />
        </mxCell>
        <mxCell id="15D66pHCM-ideDCtoqZD-33" value="" style="endArrow=none;html=1;rounded=0;exitX=0.5;exitY=1;exitDx=0;exitDy=0;entryX=1;entryY=0;entryDx=0;entryDy=0;" parent="1" source="_Os3ovWYdSZybvVUTS0H-77" target="15D66pHCM-ideDCtoqZD-32" edge="1">
          <mxGeometry relative="1" as="geometry">
            <mxPoint x="-620" y="661.48" as="sourcePoint" />
            <mxPoint x="-770" y="662.73" as="targetPoint" />
          </mxGeometry>
        </mxCell>
        <mxCell id="15D66pHCM-ideDCtoqZD-35" value="Recipe" style="ellipse;whiteSpace=wrap;html=1;align=center;" parent="1" vertex="1">
          <mxGeometry x="720" y="367.5" width="100" height="40" as="geometry" />
        </mxCell>
        <mxCell id="15D66pHCM-ideDCtoqZD-36" value="" style="endArrow=none;html=1;rounded=0;exitX=0.5;exitY=1;exitDx=0;exitDy=0;entryX=0.25;entryY=0;entryDx=0;entryDy=0;" parent="1" source="15D66pHCM-ideDCtoqZD-35" target="_Os3ovWYdSZybvVUTS0H-57" edge="1">
          <mxGeometry relative="1" as="geometry">
            <mxPoint x="960" y="464.22" as="sourcePoint" />
            <mxPoint x="1120" y="464.22" as="targetPoint" />
          </mxGeometry>
        </mxCell>
        <mxCell id="15D66pHCM-ideDCtoqZD-38" value="Table" style="whiteSpace=wrap;html=1;align=center;fillColor=#f5f5f5;strokeColor=#666666;fontColor=#333333;" parent="1" vertex="1">
          <mxGeometry x="-1079.92" y="201.25" width="140" height="60" as="geometry" />
        </mxCell>
        <mxCell id="15D66pHCM-ideDCtoqZD-39" value="&lt;u&gt;Table_ID&lt;/u&gt;" style="ellipse;whiteSpace=wrap;html=1;align=center;" parent="1" vertex="1">
          <mxGeometry x="-1220" y="176.25" width="100" height="40" as="geometry" />
        </mxCell>
        <mxCell id="15D66pHCM-ideDCtoqZD-42" value="" style="endArrow=none;html=1;rounded=0;entryX=0;entryY=0.5;entryDx=0;entryDy=0;exitX=1;exitY=0.5;exitDx=0;exitDy=0;" parent="1" source="15D66pHCM-ideDCtoqZD-39" target="15D66pHCM-ideDCtoqZD-38" edge="1">
          <mxGeometry relative="1" as="geometry">
            <mxPoint x="-1120" y="170" as="sourcePoint" />
            <mxPoint x="-679.9200000000001" y="152.5" as="targetPoint" />
          </mxGeometry>
        </mxCell>
        <mxCell id="15D66pHCM-ideDCtoqZD-43" value="Seat_Capacity" style="ellipse;whiteSpace=wrap;html=1;align=center;" parent="1" vertex="1">
          <mxGeometry x="-1220" y="226.25" width="100" height="40" as="geometry" />
        </mxCell>
        <mxCell id="15D66pHCM-ideDCtoqZD-44" value="" style="endArrow=none;html=1;rounded=0;exitX=1;exitY=0.5;exitDx=0;exitDy=0;entryX=0;entryY=0.5;entryDx=0;entryDy=0;" parent="1" source="15D66pHCM-ideDCtoqZD-43" target="15D66pHCM-ideDCtoqZD-38" edge="1">
          <mxGeometry relative="1" as="geometry">
            <mxPoint x="-1189.92" y="252.5" as="sourcePoint" />
            <mxPoint x="-679.9200000000001" y="152.5" as="targetPoint" />
          </mxGeometry>
        </mxCell>
        <mxCell id="15D66pHCM-ideDCtoqZD-58" value="Order" style="rounded=0;whiteSpace=wrap;html=1;" parent="1" vertex="1">
          <mxGeometry x="430" y="-52.5" width="170" height="80" as="geometry" />
        </mxCell>
        <mxCell id="15D66pHCM-ideDCtoqZD-59" value="&lt;u&gt;Order_ID&lt;/u&gt;" style="ellipse;whiteSpace=wrap;html=1;" parent="1" vertex="1">
          <mxGeometry x="520" y="-165" width="80" height="50" as="geometry" />
        </mxCell>
        <mxCell id="15D66pHCM-ideDCtoqZD-60" value="Status" style="ellipse;whiteSpace=wrap;html=1;" parent="1" vertex="1">
          <mxGeometry x="607.5" y="-147.5" width="80" height="50" as="geometry" />
        </mxCell>
        <mxCell id="15D66pHCM-ideDCtoqZD-68" value="" style="endArrow=none;html=1;rounded=0;entryX=0.5;entryY=1;entryDx=0;entryDy=0;exitX=1;exitY=0.25;exitDx=0;exitDy=0;" parent="1" source="15D66pHCM-ideDCtoqZD-58" target="15D66pHCM-ideDCtoqZD-60" edge="1">
          <mxGeometry relative="1" as="geometry">
            <mxPoint x="590" y="50" as="sourcePoint" />
            <mxPoint x="750" y="50" as="targetPoint" />
          </mxGeometry>
        </mxCell>
        <mxCell id="15D66pHCM-ideDCtoqZD-69" value="" style="endArrow=none;html=1;rounded=0;entryX=0.5;entryY=1;entryDx=0;entryDy=0;exitX=0.75;exitY=0;exitDx=0;exitDy=0;" parent="1" source="15D66pHCM-ideDCtoqZD-58" target="15D66pHCM-ideDCtoqZD-59" edge="1">
          <mxGeometry relative="1" as="geometry">
            <mxPoint x="430" y="-10" as="sourcePoint" />
            <mxPoint x="750" y="80" as="targetPoint" />
          </mxGeometry>
        </mxCell>
        <mxCell id="15D66pHCM-ideDCtoqZD-72" value="" style="endArrow=none;html=1;rounded=0;exitX=0;exitY=1;exitDx=0;exitDy=0;entryX=1;entryY=0.5;entryDx=0;entryDy=0;" parent="1" source="15D66pHCM-ideDCtoqZD-74" target="15D66pHCM-ideDCtoqZD-58" edge="1">
          <mxGeometry relative="1" as="geometry">
            <mxPoint x="504.644660940673" y="-135.85786437626928" as="sourcePoint" />
            <mxPoint x="750" y="50" as="targetPoint" />
          </mxGeometry>
        </mxCell>
        <mxCell id="15D66pHCM-ideDCtoqZD-74" value="Price" style="ellipse;whiteSpace=wrap;html=1;align=center;dashed=1;" parent="1" vertex="1">
          <mxGeometry x="657.5" y="-87.5" width="100" height="40" as="geometry" />
        </mxCell>
        <mxCell id="15D66pHCM-ideDCtoqZD-75" value="Priority" style="ellipse;whiteSpace=wrap;html=1;align=center;" parent="1" vertex="1">
          <mxGeometry x="650" y="-12.5" width="100" height="40" as="geometry" />
        </mxCell>
        <mxCell id="15D66pHCM-ideDCtoqZD-76" value="" style="endArrow=none;html=1;rounded=0;entryX=0;entryY=0.5;entryDx=0;entryDy=0;exitX=1;exitY=0.75;exitDx=0;exitDy=0;" parent="1" source="15D66pHCM-ideDCtoqZD-58" target="15D66pHCM-ideDCtoqZD-75" edge="1">
          <mxGeometry relative="1" as="geometry">
            <mxPoint x="300" y="100" as="sourcePoint" />
            <mxPoint x="460" y="100" as="targetPoint" />
          </mxGeometry>
        </mxCell>
        <mxCell id="15D66pHCM-ideDCtoqZD-92" value="Payment_Methods" style="ellipse;shape=doubleEllipse;margin=3;whiteSpace=wrap;html=1;align=center;" parent="1" vertex="1">
          <mxGeometry x="-689.49" y="111.25" width="120" height="40" as="geometry" />
        </mxCell>
        <mxCell id="15D66pHCM-ideDCtoqZD-93" value="PLACES" style="shape=rhombus;perimeter=rhombusPerimeter;whiteSpace=wrap;html=1;align=center;" parent="1" vertex="1">
          <mxGeometry x="-290" y="315" width="150" height="75" as="geometry" />
        </mxCell>
        <mxCell id="15D66pHCM-ideDCtoqZD-100" value="" style="endArrow=none;html=1;rounded=0;entryX=0;entryY=0.5;entryDx=0;entryDy=0;exitX=1;exitY=0;exitDx=0;exitDy=0;" parent="1" source="_Os3ovWYdSZybvVUTS0H-77" target="15D66pHCM-ideDCtoqZD-93" edge="1">
          <mxGeometry relative="1" as="geometry">
            <mxPoint x="-110" y="380" as="sourcePoint" />
            <mxPoint x="50" y="380" as="targetPoint" />
            <Array as="points">
              <mxPoint x="-695" y="350" />
            </Array>
          </mxGeometry>
        </mxCell>
        <mxCell id="15D66pHCM-ideDCtoqZD-101" value="1" style="resizable=0;html=1;whiteSpace=wrap;align=right;verticalAlign=bottom;" parent="15D66pHCM-ideDCtoqZD-100" connectable="0" vertex="1">
          <mxGeometry x="1" relative="1" as="geometry">
            <mxPoint y="21" as="offset" />
          </mxGeometry>
        </mxCell>
        <mxCell id="15D66pHCM-ideDCtoqZD-102" value="" style="shape=link;html=1;rounded=0;entryX=1;entryY=0.5;entryDx=0;entryDy=0;exitX=0;exitY=0.75;exitDx=0;exitDy=0;" parent="1" source="15D66pHCM-ideDCtoqZD-58" target="15D66pHCM-ideDCtoqZD-93" edge="1">
          <mxGeometry relative="1" as="geometry">
            <mxPoint x="-150" y="310" as="sourcePoint" />
            <mxPoint x="10" y="310" as="targetPoint" />
            <Array as="points">
              <mxPoint x="-140" y="8" />
            </Array>
          </mxGeometry>
        </mxCell>
        <mxCell id="15D66pHCM-ideDCtoqZD-103" value="N" style="resizable=0;html=1;whiteSpace=wrap;align=right;verticalAlign=bottom;" parent="15D66pHCM-ideDCtoqZD-102" connectable="0" vertex="1">
          <mxGeometry x="1" relative="1" as="geometry">
            <mxPoint x="20" y="5" as="offset" />
          </mxGeometry>
        </mxCell>
        <mxCell id="15D66pHCM-ideDCtoqZD-104" value="" style="shape=link;html=1;rounded=0;entryX=0.5;entryY=0;entryDx=0;entryDy=0;exitX=1;exitY=1;exitDx=0;exitDy=0;" parent="1" source="_Os3ovWYdSZybvVUTS0H-1" target="15D66pHCM-ideDCtoqZD-93" edge="1">
          <mxGeometry relative="1" as="geometry">
            <mxPoint x="-150" y="310" as="sourcePoint" />
            <mxPoint x="10" y="310" as="targetPoint" />
            <Array as="points">
              <mxPoint x="-215" y="246" />
            </Array>
          </mxGeometry>
        </mxCell>
        <mxCell id="15D66pHCM-ideDCtoqZD-105" value="1" style="resizable=0;html=1;whiteSpace=wrap;align=right;verticalAlign=bottom;" parent="15D66pHCM-ideDCtoqZD-104" connectable="0" vertex="1">
          <mxGeometry x="1" relative="1" as="geometry">
            <mxPoint x="-5" as="offset" />
          </mxGeometry>
        </mxCell>
        <mxCell id="15D66pHCM-ideDCtoqZD-107" value="IS_ASSIGNED" style="shape=rhombus;perimeter=rhombusPerimeter;whiteSpace=wrap;html=1;align=center;" parent="1" vertex="1">
          <mxGeometry x="-1069.92" y="357.5" width="120" height="60" as="geometry" />
        </mxCell>
        <mxCell id="15D66pHCM-ideDCtoqZD-108" value="" style="shape=link;html=1;rounded=0;entryX=0.5;entryY=0;entryDx=0;entryDy=0;exitX=0.5;exitY=1;exitDx=0;exitDy=0;" parent="1" source="15D66pHCM-ideDCtoqZD-38" target="15D66pHCM-ideDCtoqZD-107" edge="1">
          <mxGeometry relative="1" as="geometry">
            <mxPoint x="-474.96000000000004" y="420" as="sourcePoint" />
            <mxPoint x="-314.96000000000004" y="420" as="targetPoint" />
          </mxGeometry>
        </mxCell>
        <mxCell id="15D66pHCM-ideDCtoqZD-109" value="N" style="resizable=0;html=1;whiteSpace=wrap;align=right;verticalAlign=bottom;" parent="15D66pHCM-ideDCtoqZD-108" connectable="0" vertex="1">
          <mxGeometry x="1" relative="1" as="geometry">
            <mxPoint x="15" as="offset" />
          </mxGeometry>
        </mxCell>
        <mxCell id="15D66pHCM-ideDCtoqZD-110" value="" style="endArrow=none;html=1;rounded=0;entryX=1;entryY=0.5;entryDx=0;entryDy=0;exitX=0;exitY=0;exitDx=0;exitDy=0;" parent="1" source="_Os3ovWYdSZybvVUTS0H-77" target="15D66pHCM-ideDCtoqZD-107" edge="1">
          <mxGeometry relative="1" as="geometry">
            <mxPoint x="-674.96" y="489.22" as="sourcePoint" />
            <mxPoint x="-514.96" y="489.22" as="targetPoint" />
            <Array as="points">
              <mxPoint x="-860" y="388" />
              <mxPoint x="-900" y="388" />
            </Array>
          </mxGeometry>
        </mxCell>
        <mxCell id="15D66pHCM-ideDCtoqZD-111" value="1" style="resizable=0;html=1;whiteSpace=wrap;align=right;verticalAlign=bottom;" parent="15D66pHCM-ideDCtoqZD-110" connectable="0" vertex="1">
          <mxGeometry x="1" relative="1" as="geometry">
            <mxPoint x="13" y="-2" as="offset" />
          </mxGeometry>
        </mxCell>
        <mxCell id="15D66pHCM-ideDCtoqZD-112" value="IS_SITTING" style="shape=rhombus;perimeter=rhombusPerimeter;whiteSpace=wrap;html=1;align=center;" parent="1" vertex="1">
          <mxGeometry x="-740.0000000000001" y="250" width="120" height="60" as="geometry" />
        </mxCell>
        <mxCell id="15D66pHCM-ideDCtoqZD-115" value="" style="endArrow=none;html=1;rounded=0;exitX=1;exitY=0.75;exitDx=0;exitDy=0;entryX=0;entryY=0.5;entryDx=0;entryDy=0;" parent="1" source="15D66pHCM-ideDCtoqZD-38" target="15D66pHCM-ideDCtoqZD-112" edge="1">
          <mxGeometry relative="1" as="geometry">
            <mxPoint x="-340" y="420" as="sourcePoint" />
            <mxPoint x="-180" y="420" as="targetPoint" />
            <Array as="points">
              <mxPoint x="-890" y="246" />
              <mxPoint x="-890" y="280" />
            </Array>
          </mxGeometry>
        </mxCell>
        <mxCell id="15D66pHCM-ideDCtoqZD-116" value="1" style="resizable=0;html=1;whiteSpace=wrap;align=right;verticalAlign=bottom;" parent="15D66pHCM-ideDCtoqZD-115" connectable="0" vertex="1">
          <mxGeometry x="1" relative="1" as="geometry">
            <mxPoint x="8" y="-8" as="offset" />
          </mxGeometry>
        </mxCell>
        <mxCell id="15D66pHCM-ideDCtoqZD-117" value="" style="endArrow=none;html=1;rounded=0;entryX=0;entryY=1;entryDx=0;entryDy=0;exitX=1;exitY=0.5;exitDx=0;exitDy=0;" parent="1" source="15D66pHCM-ideDCtoqZD-112" target="_Os3ovWYdSZybvVUTS0H-1" edge="1">
          <mxGeometry relative="1" as="geometry">
            <mxPoint x="-340" y="420" as="sourcePoint" />
            <mxPoint x="-180" y="420" as="targetPoint" />
            <Array as="points">
              <mxPoint x="-610" y="280" />
              <mxPoint x="-610" y="246" />
            </Array>
          </mxGeometry>
        </mxCell>
        <mxCell id="15D66pHCM-ideDCtoqZD-118" value="N" style="resizable=0;html=1;whiteSpace=wrap;align=right;verticalAlign=bottom;" parent="15D66pHCM-ideDCtoqZD-117" connectable="0" vertex="1">
          <mxGeometry x="1" relative="1" as="geometry">
            <mxPoint x="-125" y="24" as="offset" />
          </mxGeometry>
        </mxCell>
        <mxCell id="15D66pHCM-ideDCtoqZD-123" value="" style="endArrow=none;html=1;rounded=0;entryX=0.5;entryY=1;entryDx=0;entryDy=0;exitX=0.5;exitY=0;exitDx=0;exitDy=0;" parent="1" target="15D66pHCM-ideDCtoqZD-254" edge="1">
          <mxGeometry relative="1" as="geometry">
            <mxPoint x="12.5" y="-67.5" as="sourcePoint" />
            <mxPoint x="-70" y="-47.5" as="targetPoint" />
          </mxGeometry>
        </mxCell>
        <mxCell id="15D66pHCM-ideDCtoqZD-140" value="Rating" style="ellipse;whiteSpace=wrap;html=1;" parent="1" vertex="1">
          <mxGeometry x="-804.96" y="-102.5" width="105" height="50" as="geometry" />
        </mxCell>
        <mxCell id="15D66pHCM-ideDCtoqZD-141" value="" style="endArrow=none;html=1;rounded=0;exitX=0.25;exitY=0;exitDx=0;exitDy=0;entryX=0.5;entryY=1;entryDx=0;entryDy=0;" parent="1" source="15D66pHCM-ideDCtoqZD-145" target="15D66pHCM-ideDCtoqZD-140" edge="1">
          <mxGeometry relative="1" as="geometry">
            <mxPoint x="-682.5" y="-87.5" as="sourcePoint" />
            <mxPoint x="-752" y="-52" as="targetPoint" />
          </mxGeometry>
        </mxCell>
        <mxCell id="15D66pHCM-ideDCtoqZD-142" value="" style="endArrow=none;html=1;rounded=0;entryX=1;entryY=1;entryDx=0;entryDy=0;exitX=0;exitY=0;exitDx=0;exitDy=0;" parent="1" source="15D66pHCM-ideDCtoqZD-145" target="15D66pHCM-ideDCtoqZD-255" edge="1">
          <mxGeometry relative="1" as="geometry">
            <mxPoint x="-725" y="-87.5" as="sourcePoint" />
            <mxPoint x="-905" y="-42.5" as="targetPoint" />
          </mxGeometry>
        </mxCell>
        <mxCell id="15D66pHCM-ideDCtoqZD-143" value="" style="endArrow=none;html=1;rounded=0;exitX=0;exitY=1;exitDx=0;exitDy=0;entryX=0.75;entryY=0;entryDx=0;entryDy=0;" parent="1" source="15D66pHCM-ideDCtoqZD-146" target="15D66pHCM-ideDCtoqZD-145" edge="1">
          <mxGeometry relative="1" as="geometry">
            <mxPoint x="-580.3553390593277" y="-123.35786437626894" as="sourcePoint" />
            <mxPoint x="-640" y="-87.5" as="targetPoint" />
          </mxGeometry>
        </mxCell>
        <mxCell id="15D66pHCM-ideDCtoqZD-145" value="Review" style="shape=ext;margin=3;double=1;whiteSpace=wrap;html=1;align=center;" parent="1" vertex="1">
          <mxGeometry x="-800" y="-30" width="150" height="70" as="geometry" />
        </mxCell>
        <mxCell id="15D66pHCM-ideDCtoqZD-146" value="Description" style="ellipse;whiteSpace=wrap;html=1;" parent="1" vertex="1">
          <mxGeometry x="-689.49" y="-92.5" width="105" height="50" as="geometry" />
        </mxCell>
        <mxCell id="15D66pHCM-ideDCtoqZD-148" value="" style="endArrow=none;html=1;rounded=0;exitX=-0.002;exitY=0.615;exitDx=0;exitDy=0;exitPerimeter=0;entryX=1;entryY=0.5;entryDx=0;entryDy=0;" parent="1" source="15D66pHCM-ideDCtoqZD-145" target="-TUUEZ4lwArsrJGdlQ5--71" edge="1">
          <mxGeometry relative="1" as="geometry">
            <mxPoint x="-465" y="82.5" as="sourcePoint" />
            <mxPoint x="-839.943379603837" y="1.6587832057371088" as="targetPoint" />
          </mxGeometry>
        </mxCell>
        <mxCell id="15D66pHCM-ideDCtoqZD-151" value="WRITES" style="shape=rhombus;double=1;perimeter=rhombusPerimeter;whiteSpace=wrap;html=1;align=center;" parent="1" vertex="1">
          <mxGeometry x="-570" y="-7.5" width="130" height="65" as="geometry" />
        </mxCell>
        <mxCell id="15D66pHCM-ideDCtoqZD-155" value="" style="shape=link;html=1;rounded=0;entryX=0;entryY=0.5;entryDx=0;entryDy=0;exitX=1;exitY=0.75;exitDx=0;exitDy=0;fillColor=#f5f5f5;strokeColor=#666666;" parent="1" source="15D66pHCM-ideDCtoqZD-145" target="15D66pHCM-ideDCtoqZD-151" edge="1">
          <mxGeometry relative="1" as="geometry">
            <mxPoint x="-260" y="180" as="sourcePoint" />
            <mxPoint x="-100" y="180" as="targetPoint" />
          </mxGeometry>
        </mxCell>
        <mxCell id="15D66pHCM-ideDCtoqZD-156" value="N" style="resizable=0;html=1;whiteSpace=wrap;align=right;verticalAlign=bottom;" parent="15D66pHCM-ideDCtoqZD-155" connectable="0" vertex="1">
          <mxGeometry x="1" relative="1" as="geometry" />
        </mxCell>
        <mxCell id="15D66pHCM-ideDCtoqZD-157" value="" style="endArrow=none;html=1;rounded=0;entryX=1;entryY=0.5;entryDx=0;entryDy=0;exitX=0.5;exitY=0;exitDx=0;exitDy=0;" parent="1" source="_Os3ovWYdSZybvVUTS0H-1" target="15D66pHCM-ideDCtoqZD-151" edge="1">
          <mxGeometry relative="1" as="geometry">
            <mxPoint x="-260" y="180" as="sourcePoint" />
            <mxPoint x="-100" y="180" as="targetPoint" />
            <Array as="points">
              <mxPoint x="-415" y="25" />
            </Array>
          </mxGeometry>
        </mxCell>
        <mxCell id="15D66pHCM-ideDCtoqZD-158" value="1" style="resizable=0;html=1;whiteSpace=wrap;align=right;verticalAlign=bottom;" parent="15D66pHCM-ideDCtoqZD-157" connectable="0" vertex="1">
          <mxGeometry x="1" relative="1" as="geometry">
            <mxPoint y="22" as="offset" />
          </mxGeometry>
        </mxCell>
        <mxCell id="15D66pHCM-ideDCtoqZD-161" value="" style="shape=link;html=1;rounded=0;entryX=0.956;entryY=0.509;entryDx=0;entryDy=0;exitX=0;exitY=0.25;exitDx=0;exitDy=0;entryPerimeter=0;fillColor=#f5f5f5;strokeColor=#666666;" parent="1" source="15D66pHCM-ideDCtoqZD-58" edge="1">
          <mxGeometry relative="1" as="geometry">
            <mxPoint x="-45" y="-50" as="sourcePoint" />
            <mxPoint x="67.2199999999998" y="-36.960000000000036" as="targetPoint" />
          </mxGeometry>
        </mxCell>
        <mxCell id="15D66pHCM-ideDCtoqZD-162" value="N" style="resizable=0;html=1;whiteSpace=wrap;align=right;verticalAlign=bottom;" parent="15D66pHCM-ideDCtoqZD-161" connectable="0" vertex="1">
          <mxGeometry x="1" relative="1" as="geometry">
            <mxPoint x="13" y="-1" as="offset" />
          </mxGeometry>
        </mxCell>
        <mxCell id="15D66pHCM-ideDCtoqZD-163" value="" style="shape=link;html=1;rounded=0;entryX=0;entryY=0.5;entryDx=0;entryDy=0;exitX=0.75;exitY=0;exitDx=0;exitDy=0;" parent="1" source="_Os3ovWYdSZybvVUTS0H-1" edge="1">
          <mxGeometry relative="1" as="geometry">
            <mxPoint x="-260" y="180" as="sourcePoint" />
            <mxPoint x="-47.5" y="-37.5" as="targetPoint" />
            <Array as="points">
              <mxPoint x="-370" y="-37" />
            </Array>
          </mxGeometry>
        </mxCell>
        <mxCell id="15D66pHCM-ideDCtoqZD-164" value="1" style="resizable=0;html=1;whiteSpace=wrap;align=right;verticalAlign=bottom;" parent="15D66pHCM-ideDCtoqZD-163" connectable="0" vertex="1">
          <mxGeometry x="1" relative="1" as="geometry">
            <mxPoint x="13" y="-5" as="offset" />
          </mxGeometry>
        </mxCell>
        <mxCell id="15D66pHCM-ideDCtoqZD-165" value="Chef" style="whiteSpace=wrap;html=1;align=center;" parent="1" vertex="1">
          <mxGeometry x="97.6" y="1000" width="155" height="78.77" as="geometry" />
        </mxCell>
        <mxCell id="15D66pHCM-ideDCtoqZD-166" value="Salary" style="ellipse;whiteSpace=wrap;html=1;align=center;" parent="1" vertex="1">
          <mxGeometry x="-47.5" y="1015" width="80" height="35" as="geometry" />
        </mxCell>
        <mxCell id="15D66pHCM-ideDCtoqZD-167" value="" style="endArrow=none;html=1;rounded=0;exitX=1;exitY=0;exitDx=0;exitDy=0;entryX=0;entryY=0.5;entryDx=0;entryDy=0;" parent="1" source="15D66pHCM-ideDCtoqZD-166" target="15D66pHCM-ideDCtoqZD-165" edge="1">
          <mxGeometry relative="1" as="geometry">
            <mxPoint x="345" y="1001.27" as="sourcePoint" />
            <mxPoint x="505" y="1001.27" as="targetPoint" />
          </mxGeometry>
        </mxCell>
        <mxCell id="15D66pHCM-ideDCtoqZD-168" value="Name" style="ellipse;whiteSpace=wrap;html=1;align=center;" parent="1" vertex="1">
          <mxGeometry x="-25.000000000000004" y="1059.9999999999998" width="100" height="30" as="geometry" />
        </mxCell>
        <mxCell id="15D66pHCM-ideDCtoqZD-169" value="" style="endArrow=none;html=1;rounded=0;exitX=1;exitY=0.5;exitDx=0;exitDy=0;entryX=0;entryY=0.75;entryDx=0;entryDy=0;" parent="1" source="15D66pHCM-ideDCtoqZD-168" target="15D66pHCM-ideDCtoqZD-165" edge="1">
          <mxGeometry relative="1" as="geometry">
            <mxPoint x="345" y="1001.27" as="sourcePoint" />
            <mxPoint x="505" y="1001.27" as="targetPoint" />
          </mxGeometry>
        </mxCell>
        <mxCell id="15D66pHCM-ideDCtoqZD-170" value="Hire_Date" style="ellipse;whiteSpace=wrap;html=1;align=center;" parent="1" vertex="1">
          <mxGeometry x="290" y="1090" width="80" height="40" as="geometry" />
        </mxCell>
        <mxCell id="15D66pHCM-ideDCtoqZD-171" value="" style="endArrow=none;html=1;rounded=0;entryX=0.005;entryY=0.361;entryDx=0;entryDy=0;exitX=1;exitY=1;exitDx=0;exitDy=0;entryPerimeter=0;" parent="1" source="15D66pHCM-ideDCtoqZD-165" target="15D66pHCM-ideDCtoqZD-170" edge="1">
          <mxGeometry relative="1" as="geometry">
            <mxPoint x="247.5" y="1032.52" as="sourcePoint" />
            <mxPoint x="505" y="1151.27" as="targetPoint" />
          </mxGeometry>
        </mxCell>
        <mxCell id="15D66pHCM-ideDCtoqZD-172" value="CV" style="ellipse;whiteSpace=wrap;html=1;align=center;" parent="1" vertex="1">
          <mxGeometry x="290" y="1047.54" width="100" height="31.23" as="geometry" />
        </mxCell>
        <mxCell id="15D66pHCM-ideDCtoqZD-173" value="" style="endArrow=none;html=1;rounded=0;exitX=1;exitY=0.75;exitDx=0;exitDy=0;entryX=0;entryY=0.5;entryDx=0;entryDy=0;" parent="1" source="15D66pHCM-ideDCtoqZD-165" target="15D66pHCM-ideDCtoqZD-172" edge="1">
          <mxGeometry relative="1" as="geometry">
            <mxPoint x="345" y="1151.27" as="sourcePoint" />
            <mxPoint x="505" y="1151.27" as="targetPoint" />
          </mxGeometry>
        </mxCell>
        <mxCell id="15D66pHCM-ideDCtoqZD-180" value="SUPERVISION" style="shape=rhombus;perimeter=rhombusPerimeter;whiteSpace=wrap;html=1;align=center;" parent="1" vertex="1">
          <mxGeometry x="152.6" y="1195" width="120" height="60" as="geometry" />
        </mxCell>
        <mxCell id="15D66pHCM-ideDCtoqZD-182" value="Sous-Chef" style="text;html=1;align=center;verticalAlign=middle;whiteSpace=wrap;rounded=0;" parent="1" vertex="1">
          <mxGeometry x="240" y="1165" width="60" height="30" as="geometry" />
        </mxCell>
        <mxCell id="15D66pHCM-ideDCtoqZD-184" value="Chef" style="text;html=1;align=center;verticalAlign=middle;whiteSpace=wrap;rounded=0;" parent="1" vertex="1">
          <mxGeometry x="140" y="1165" width="60" height="30" as="geometry" />
        </mxCell>
        <mxCell id="15D66pHCM-ideDCtoqZD-191" value="" style="endArrow=none;html=1;rounded=0;entryX=0;entryY=0;entryDx=0;entryDy=0;exitX=0.75;exitY=1;exitDx=0;exitDy=0;" parent="1" source="15D66pHCM-ideDCtoqZD-165" target="15D66pHCM-ideDCtoqZD-180" edge="1">
          <mxGeometry relative="1" as="geometry">
            <mxPoint x="180" y="1070" as="sourcePoint" />
            <mxPoint x="245" y="1042.52" as="targetPoint" />
          </mxGeometry>
        </mxCell>
        <mxCell id="15D66pHCM-ideDCtoqZD-192" value="N" style="resizable=0;html=1;whiteSpace=wrap;align=right;verticalAlign=bottom;" parent="15D66pHCM-ideDCtoqZD-191" connectable="0" vertex="1">
          <mxGeometry x="1" relative="1" as="geometry">
            <mxPoint x="80" y="2" as="offset" />
          </mxGeometry>
        </mxCell>
        <mxCell id="15D66pHCM-ideDCtoqZD-193" value="" style="endArrow=none;html=1;rounded=0;entryX=1;entryY=0;entryDx=0;entryDy=0;exitX=0.75;exitY=1;exitDx=0;exitDy=0;" parent="1" source="15D66pHCM-ideDCtoqZD-165" target="15D66pHCM-ideDCtoqZD-180" edge="1">
          <mxGeometry relative="1" as="geometry">
            <mxPoint x="85" y="1042.52" as="sourcePoint" />
            <mxPoint x="245" y="1042.52" as="targetPoint" />
          </mxGeometry>
        </mxCell>
        <mxCell id="15D66pHCM-ideDCtoqZD-194" value="1" style="resizable=0;html=1;whiteSpace=wrap;align=right;verticalAlign=bottom;" parent="15D66pHCM-ideDCtoqZD-193" connectable="0" vertex="1">
          <mxGeometry x="1" relative="1" as="geometry">
            <mxPoint x="-70" y="2" as="offset" />
          </mxGeometry>
        </mxCell>
        <mxCell id="15D66pHCM-ideDCtoqZD-196" value="&lt;u&gt;Employee_ID&lt;/u&gt;" style="ellipse;whiteSpace=wrap;html=1;align=center;" parent="1" vertex="1">
          <mxGeometry x="22.6" y="950" width="100" height="40" as="geometry" />
        </mxCell>
        <mxCell id="15D66pHCM-ideDCtoqZD-197" value="Role" style="ellipse;whiteSpace=wrap;html=1;align=center;" parent="1" vertex="1">
          <mxGeometry x="-52.5" y="977.04" width="90" height="35" as="geometry" />
        </mxCell>
        <mxCell id="15D66pHCM-ideDCtoqZD-198" value="" style="endArrow=none;html=1;rounded=0;exitX=1;exitY=0.5;exitDx=0;exitDy=0;entryX=0;entryY=0.5;entryDx=0;entryDy=0;" parent="1" source="15D66pHCM-ideDCtoqZD-197" target="15D66pHCM-ideDCtoqZD-165" edge="1">
          <mxGeometry relative="1" as="geometry">
            <mxPoint x="52.5" y="1070.02" as="sourcePoint" />
            <mxPoint x="155" y="1052.52" as="targetPoint" />
          </mxGeometry>
        </mxCell>
        <mxCell id="15D66pHCM-ideDCtoqZD-199" value="" style="endArrow=none;html=1;rounded=0;exitX=0;exitY=0.25;exitDx=0;exitDy=0;entryX=0.5;entryY=1;entryDx=0;entryDy=0;" parent="1" source="15D66pHCM-ideDCtoqZD-165" target="15D66pHCM-ideDCtoqZD-196" edge="1">
          <mxGeometry relative="1" as="geometry">
            <mxPoint x="-5" y="1052.52" as="sourcePoint" />
            <mxPoint x="67.5" y="1019.27" as="targetPoint" />
          </mxGeometry>
        </mxCell>
        <mxCell id="15D66pHCM-ideDCtoqZD-200" value="CONTAINS" style="shape=rhombus;perimeter=rhombusPerimeter;whiteSpace=wrap;html=1;align=center;" parent="1" vertex="1">
          <mxGeometry x="500" y="101.25" width="120" height="60" as="geometry" />
        </mxCell>
        <mxCell id="15D66pHCM-ideDCtoqZD-201" value="" style="shape=link;html=1;rounded=0;exitX=0.75;exitY=1;exitDx=0;exitDy=0;entryX=0.5;entryY=0;entryDx=0;entryDy=0;" parent="1" source="15D66pHCM-ideDCtoqZD-58" target="15D66pHCM-ideDCtoqZD-200" edge="1">
          <mxGeometry relative="1" as="geometry">
            <mxPoint x="410" y="310" as="sourcePoint" />
            <mxPoint x="370" y="290" as="targetPoint" />
          </mxGeometry>
        </mxCell>
        <mxCell id="15D66pHCM-ideDCtoqZD-202" value="N" style="resizable=0;html=1;whiteSpace=wrap;align=right;verticalAlign=bottom;" parent="15D66pHCM-ideDCtoqZD-201" connectable="0" vertex="1">
          <mxGeometry x="1" relative="1" as="geometry">
            <mxPoint x="-7" as="offset" />
          </mxGeometry>
        </mxCell>
        <mxCell id="15D66pHCM-ideDCtoqZD-203" value="" style="endArrow=none;html=1;rounded=0;entryX=0.5;entryY=1;entryDx=0;entryDy=0;exitX=0;exitY=0;exitDx=0;exitDy=0;" parent="1" source="_Os3ovWYdSZybvVUTS0H-57" target="15D66pHCM-ideDCtoqZD-200" edge="1">
          <mxGeometry relative="1" as="geometry">
            <mxPoint x="410" y="310" as="sourcePoint" />
            <mxPoint x="570" y="310" as="targetPoint" />
            <Array as="points">
              <mxPoint x="560" y="430" />
            </Array>
          </mxGeometry>
        </mxCell>
        <mxCell id="15D66pHCM-ideDCtoqZD-204" value="M" style="resizable=0;html=1;whiteSpace=wrap;align=right;verticalAlign=bottom;" parent="15D66pHCM-ideDCtoqZD-203" connectable="0" vertex="1">
          <mxGeometry x="1" relative="1" as="geometry">
            <mxPoint y="17" as="offset" />
          </mxGeometry>
        </mxCell>
        <mxCell id="15D66pHCM-ideDCtoqZD-205" value="COOKS" style="shape=rhombus;perimeter=rhombusPerimeter;whiteSpace=wrap;html=1;align=center;" parent="1" vertex="1">
          <mxGeometry x="270" y="740" width="120" height="60" as="geometry" />
        </mxCell>
        <mxCell id="15D66pHCM-ideDCtoqZD-208" value="" style="endArrow=none;html=1;rounded=0;entryX=0.5;entryY=1;entryDx=0;entryDy=0;exitX=1;exitY=0;exitDx=0;exitDy=0;" parent="1" source="15D66pHCM-ideDCtoqZD-165" target="15D66pHCM-ideDCtoqZD-205" edge="1">
          <mxGeometry relative="1" as="geometry">
            <mxPoint x="260" y="990" as="sourcePoint" />
            <mxPoint x="520" y="290" as="targetPoint" />
            <Array as="points">
              <mxPoint x="253" y="930" />
              <mxPoint x="330" y="930" />
            </Array>
          </mxGeometry>
        </mxCell>
        <mxCell id="15D66pHCM-ideDCtoqZD-209" value="M" style="resizable=0;html=1;whiteSpace=wrap;align=right;verticalAlign=bottom;" parent="15D66pHCM-ideDCtoqZD-208" connectable="0" vertex="1">
          <mxGeometry x="1" relative="1" as="geometry">
            <mxPoint x="-15" y="13" as="offset" />
          </mxGeometry>
        </mxCell>
        <mxCell id="15D66pHCM-ideDCtoqZD-210" value="Time_To_Make" style="ellipse;whiteSpace=wrap;html=1;align=center;" parent="1" vertex="1">
          <mxGeometry x="370" y="690" width="100" height="40" as="geometry" />
        </mxCell>
        <mxCell id="15D66pHCM-ideDCtoqZD-211" value="" style="endArrow=none;html=1;rounded=0;entryX=0;entryY=1;entryDx=0;entryDy=0;exitX=1;exitY=0.5;exitDx=0;exitDy=0;" parent="1" source="15D66pHCM-ideDCtoqZD-205" target="15D66pHCM-ideDCtoqZD-210" edge="1">
          <mxGeometry relative="1" as="geometry">
            <mxPoint x="400" y="420" as="sourcePoint" />
            <mxPoint x="560" y="420" as="targetPoint" />
          </mxGeometry>
        </mxCell>
        <mxCell id="15D66pHCM-ideDCtoqZD-213" value="Quantity" style="ellipse;whiteSpace=wrap;html=1;align=center;" parent="1" vertex="1">
          <mxGeometry x="650" y="112.5" width="100" height="40" as="geometry" />
        </mxCell>
        <mxCell id="15D66pHCM-ideDCtoqZD-215" value="" style="endArrow=none;html=1;rounded=0;exitX=1;exitY=0.5;exitDx=0;exitDy=0;entryX=0;entryY=0.5;entryDx=0;entryDy=0;" parent="1" source="15D66pHCM-ideDCtoqZD-200" target="15D66pHCM-ideDCtoqZD-213" edge="1">
          <mxGeometry relative="1" as="geometry">
            <mxPoint x="400" y="300" as="sourcePoint" />
            <mxPoint x="560" y="300" as="targetPoint" />
          </mxGeometry>
        </mxCell>
        <mxCell id="15D66pHCM-ideDCtoqZD-216" value="Avg_Cook_Time" style="ellipse;whiteSpace=wrap;html=1;align=center;dashed=1;" parent="1" vertex="1">
          <mxGeometry x="640" y="529.22" width="100" height="40" as="geometry" />
        </mxCell>
        <mxCell id="15D66pHCM-ideDCtoqZD-217" value="" style="endArrow=none;html=1;rounded=0;entryX=0;entryY=1;entryDx=0;entryDy=0;exitX=0.5;exitY=0;exitDx=0;exitDy=0;" parent="1" source="15D66pHCM-ideDCtoqZD-216" target="_Os3ovWYdSZybvVUTS0H-57" edge="1">
          <mxGeometry relative="1" as="geometry">
            <mxPoint x="610" y="414.22" as="sourcePoint" />
            <mxPoint x="770" y="414.22" as="targetPoint" />
          </mxGeometry>
        </mxCell>
        <mxCell id="15D66pHCM-ideDCtoqZD-218" value="Kitchen_Station" style="whiteSpace=wrap;html=1;align=center;" parent="1" vertex="1">
          <mxGeometry x="620" y="736.25" width="140" height="60" as="geometry" />
        </mxCell>
        <mxCell id="15D66pHCM-ideDCtoqZD-220" value="" style="endArrow=none;html=1;rounded=0;exitX=0.5;exitY=0;exitDx=0;exitDy=0;entryX=0.55;entryY=1.021;entryDx=0;entryDy=0;entryPerimeter=0;" parent="1" source="bR9CyF9A_xtMfPqVnREq-2" target="15D66pHCM-ideDCtoqZD-218" edge="1">
          <mxGeometry relative="1" as="geometry">
            <mxPoint x="722.3249999999998" y="808.6800000000003" as="sourcePoint" />
            <mxPoint x="1015" y="638.75" as="targetPoint" />
          </mxGeometry>
        </mxCell>
        <mxCell id="15D66pHCM-ideDCtoqZD-234" value="&lt;u&gt;Station_Name&lt;/u&gt;" style="ellipse;whiteSpace=wrap;html=1;align=center;" parent="1" vertex="1">
          <mxGeometry x="670" y="675" width="100" height="40" as="geometry" />
        </mxCell>
        <mxCell id="15D66pHCM-ideDCtoqZD-235" value="Specialization" style="ellipse;whiteSpace=wrap;html=1;align=center;" parent="1" vertex="1">
          <mxGeometry x="567.5" y="680" width="90" height="35" as="geometry" />
        </mxCell>
        <mxCell id="15D66pHCM-ideDCtoqZD-236" value="" style="endArrow=none;html=1;rounded=0;exitX=1;exitY=0.5;exitDx=0;exitDy=0;entryX=0.25;entryY=0;entryDx=0;entryDy=0;" parent="1" source="15D66pHCM-ideDCtoqZD-235" target="15D66pHCM-ideDCtoqZD-218" edge="1">
          <mxGeometry relative="1" as="geometry">
            <mxPoint x="505" y="690" as="sourcePoint" />
            <mxPoint x="665" y="690" as="targetPoint" />
          </mxGeometry>
        </mxCell>
        <mxCell id="15D66pHCM-ideDCtoqZD-237" value="" style="endArrow=none;html=1;rounded=0;entryX=0.5;entryY=1;entryDx=0;entryDy=0;exitX=0.5;exitY=0;exitDx=0;exitDy=0;" parent="1" source="15D66pHCM-ideDCtoqZD-218" target="15D66pHCM-ideDCtoqZD-234" edge="1">
          <mxGeometry relative="1" as="geometry">
            <mxPoint x="505" y="690" as="sourcePoint" />
            <mxPoint x="665" y="690" as="targetPoint" />
          </mxGeometry>
        </mxCell>
        <mxCell id="15D66pHCM-ideDCtoqZD-238" value="WORKS_IN" style="shape=rhombus;perimeter=rhombusPerimeter;whiteSpace=wrap;html=1;align=center;" parent="1" vertex="1">
          <mxGeometry x="580" y="1009.38" width="120" height="60" as="geometry" />
        </mxCell>
        <mxCell id="15D66pHCM-ideDCtoqZD-240" value="" style="shape=link;html=1;rounded=0;entryX=0.5;entryY=0;entryDx=0;entryDy=0;exitX=0.16;exitY=1.021;exitDx=0;exitDy=0;exitPerimeter=0;" parent="1" source="15D66pHCM-ideDCtoqZD-218" target="15D66pHCM-ideDCtoqZD-238" edge="1">
          <mxGeometry relative="1" as="geometry">
            <mxPoint x="472.5" y="850" as="sourcePoint" />
            <mxPoint x="632.5" y="850" as="targetPoint" />
          </mxGeometry>
        </mxCell>
        <mxCell id="15D66pHCM-ideDCtoqZD-241" value="1" style="resizable=0;html=1;whiteSpace=wrap;align=right;verticalAlign=bottom;" parent="15D66pHCM-ideDCtoqZD-240" connectable="0" vertex="1">
          <mxGeometry x="1" relative="1" as="geometry">
            <mxPoint x="23" as="offset" />
          </mxGeometry>
        </mxCell>
        <mxCell id="15D66pHCM-ideDCtoqZD-242" value="" style="shape=link;html=1;rounded=0;entryX=0;entryY=0.5;entryDx=0;entryDy=0;exitX=1;exitY=0.5;exitDx=0;exitDy=0;fillColor=#f5f5f5;strokeColor=#666666;" parent="1" source="15D66pHCM-ideDCtoqZD-165" target="15D66pHCM-ideDCtoqZD-238" edge="1">
          <mxGeometry relative="1" as="geometry">
            <mxPoint x="187.5" y="860" as="sourcePoint" />
            <mxPoint x="347.5" y="860" as="targetPoint" />
          </mxGeometry>
        </mxCell>
        <mxCell id="15D66pHCM-ideDCtoqZD-243" value="N" style="resizable=0;html=1;whiteSpace=wrap;align=right;verticalAlign=bottom;" parent="15D66pHCM-ideDCtoqZD-242" connectable="0" vertex="1">
          <mxGeometry x="1" relative="1" as="geometry">
            <mxPoint x="3" y="25" as="offset" />
          </mxGeometry>
        </mxCell>
        <mxCell id="15D66pHCM-ideDCtoqZD-244" value="MANAGES" style="shape=rhombus;perimeter=rhombusPerimeter;whiteSpace=wrap;html=1;align=center;" parent="1" vertex="1">
          <mxGeometry x="447.5" y="736.25" width="120" height="60" as="geometry" />
        </mxCell>
        <mxCell id="15D66pHCM-ideDCtoqZD-245" value="" style="shape=link;html=1;rounded=0;entryX=1;entryY=0.5;entryDx=0;entryDy=0;exitX=0;exitY=0.5;exitDx=0;exitDy=0;" parent="1" source="15D66pHCM-ideDCtoqZD-218" target="15D66pHCM-ideDCtoqZD-244" edge="1">
          <mxGeometry relative="1" as="geometry">
            <mxPoint x="472.5" y="850" as="sourcePoint" />
            <mxPoint x="632.5" y="850" as="targetPoint" />
          </mxGeometry>
        </mxCell>
        <mxCell id="15D66pHCM-ideDCtoqZD-246" value="1" style="resizable=0;html=1;whiteSpace=wrap;align=right;verticalAlign=bottom;" parent="15D66pHCM-ideDCtoqZD-245" connectable="0" vertex="1">
          <mxGeometry x="1" relative="1" as="geometry">
            <mxPoint y="-6" as="offset" />
          </mxGeometry>
        </mxCell>
        <mxCell id="15D66pHCM-ideDCtoqZD-247" value="" style="endArrow=none;html=1;rounded=0;entryX=0.5;entryY=1;entryDx=0;entryDy=0;exitX=1;exitY=0;exitDx=0;exitDy=0;" parent="1" source="15D66pHCM-ideDCtoqZD-165" target="15D66pHCM-ideDCtoqZD-244" edge="1">
          <mxGeometry relative="1" as="geometry">
            <mxPoint x="187.5" y="860" as="sourcePoint" />
            <mxPoint x="347.5" y="860" as="targetPoint" />
            <Array as="points">
              <mxPoint x="508" y="1000" />
            </Array>
          </mxGeometry>
        </mxCell>
        <mxCell id="15D66pHCM-ideDCtoqZD-248" value="1" style="resizable=0;html=1;whiteSpace=wrap;align=right;verticalAlign=bottom;" parent="15D66pHCM-ideDCtoqZD-247" connectable="0" vertex="1">
          <mxGeometry x="1" relative="1" as="geometry">
            <mxPoint x="10" y="24" as="offset" />
          </mxGeometry>
        </mxCell>
        <mxCell id="15D66pHCM-ideDCtoqZD-252" value="Delivery_Driver" style="whiteSpace=wrap;html=1;align=center;" parent="1" vertex="1">
          <mxGeometry x="-140" y="520.86" width="120" height="70" as="geometry" />
        </mxCell>
        <mxCell id="15D66pHCM-ideDCtoqZD-254" value="Payment_Method" style="ellipse;whiteSpace=wrap;html=1;align=center;" parent="1" vertex="1">
          <mxGeometry x="-37.5" y="-137.5" width="100" height="40" as="geometry" />
        </mxCell>
        <mxCell id="15D66pHCM-ideDCtoqZD-255" value="&lt;span style=&quot;border-bottom: 1px dotted&quot;&gt;Review_Number&lt;/span&gt;" style="ellipse;whiteSpace=wrap;html=1;align=center;" parent="1" vertex="1">
          <mxGeometry x="-919.96" y="-87.5" width="100" height="40" as="geometry" />
        </mxCell>
        <mxCell id="15D66pHCM-ideDCtoqZD-256" value="&lt;u&gt;Employee_ID&lt;/u&gt;" style="ellipse;whiteSpace=wrap;html=1;" parent="1" vertex="1">
          <mxGeometry x="-152.5" y="440.00000000000006" width="80" height="50" as="geometry" />
        </mxCell>
        <mxCell id="15D66pHCM-ideDCtoqZD-257" value="" style="endArrow=none;html=1;rounded=0;exitX=0.5;exitY=1;exitDx=0;exitDy=0;entryX=0.25;entryY=0;entryDx=0;entryDy=0;" parent="1" source="15D66pHCM-ideDCtoqZD-256" target="15D66pHCM-ideDCtoqZD-252" edge="1">
          <mxGeometry relative="1" as="geometry">
            <mxPoint x="72.4" y="502.08000000000004" as="sourcePoint" />
            <mxPoint x="-97.6" y="519.33" as="targetPoint" />
          </mxGeometry>
        </mxCell>
        <mxCell id="15D66pHCM-ideDCtoqZD-258" value="Name" style="ellipse;whiteSpace=wrap;html=1;align=center;" parent="1" vertex="1">
          <mxGeometry x="-19.999999999999993" y="472.72" width="80" height="31.5" as="geometry" />
        </mxCell>
        <mxCell id="15D66pHCM-ideDCtoqZD-259" value="" style="endArrow=none;html=1;rounded=0;exitX=0;exitY=1;exitDx=0;exitDy=0;entryX=1;entryY=0;entryDx=0;entryDy=0;" parent="1" source="15D66pHCM-ideDCtoqZD-258" target="15D66pHCM-ideDCtoqZD-252" edge="1">
          <mxGeometry relative="1" as="geometry">
            <mxPoint x="72.4" y="502.08000000000004" as="sourcePoint" />
            <mxPoint x="-62.599999999999994" y="519.33" as="targetPoint" />
          </mxGeometry>
        </mxCell>
        <mxCell id="15D66pHCM-ideDCtoqZD-269" value="Assigned_Locations" style="ellipse;shape=doubleEllipse;margin=3;whiteSpace=wrap;html=1;align=center;" parent="1" vertex="1">
          <mxGeometry x="2.6645352591003757e-15" y="561.01" width="122.6" height="40" as="geometry" />
        </mxCell>
        <mxCell id="15D66pHCM-ideDCtoqZD-270" value="" style="endArrow=none;html=1;rounded=0;entryX=0;entryY=0.5;entryDx=0;entryDy=0;exitX=1;exitY=0.75;exitDx=0;exitDy=0;" parent="1" source="15D66pHCM-ideDCtoqZD-252" target="15D66pHCM-ideDCtoqZD-269" edge="1">
          <mxGeometry relative="1" as="geometry">
            <mxPoint x="-257.6" y="545.58" as="sourcePoint" />
            <mxPoint x="-97.6" y="545.58" as="targetPoint" />
          </mxGeometry>
        </mxCell>
        <mxCell id="15D66pHCM-ideDCtoqZD-271" value="Contact_Info" style="ellipse;whiteSpace=wrap;html=1;align=center;" parent="1" vertex="1">
          <mxGeometry x="-260" y="466.72" width="100" height="40" as="geometry" />
        </mxCell>
        <mxCell id="15D66pHCM-ideDCtoqZD-272" value="" style="endArrow=none;html=1;rounded=0;entryX=0;entryY=0;entryDx=0;entryDy=0;exitX=0.5;exitY=1;exitDx=0;exitDy=0;" parent="1" source="15D66pHCM-ideDCtoqZD-271" target="15D66pHCM-ideDCtoqZD-252" edge="1">
          <mxGeometry relative="1" as="geometry">
            <mxPoint x="-257.6" y="545.58" as="sourcePoint" />
            <mxPoint x="-97.6" y="545.58" as="targetPoint" />
          </mxGeometry>
        </mxCell>
        <mxCell id="15D66pHCM-ideDCtoqZD-273" value="Vehicule_Type" style="ellipse;whiteSpace=wrap;html=1;align=center;" parent="1" vertex="1">
          <mxGeometry x="-65" y="607.58" width="100" height="40" as="geometry" />
        </mxCell>
        <mxCell id="15D66pHCM-ideDCtoqZD-274" value="" style="endArrow=none;html=1;rounded=0;entryX=0.75;entryY=1;entryDx=0;entryDy=0;exitX=0.5;exitY=0;exitDx=0;exitDy=0;" parent="1" source="15D66pHCM-ideDCtoqZD-273" target="15D66pHCM-ideDCtoqZD-252" edge="1">
          <mxGeometry relative="1" as="geometry">
            <mxPoint x="-257.6" y="545.58" as="sourcePoint" />
            <mxPoint x="-97.6" y="545.58" as="targetPoint" />
          </mxGeometry>
        </mxCell>
        <mxCell id="15D66pHCM-ideDCtoqZD-280" value="DELIVERS" style="shape=rhombus;perimeter=rhombusPerimeter;whiteSpace=wrap;html=1;align=center;fillColor=#f5f5f5;strokeColor=#666666;fontColor=#333333;" parent="1" vertex="1">
          <mxGeometry x="165" y="73.75" width="170" height="90" as="geometry" />
        </mxCell>
        <mxCell id="15D66pHCM-ideDCtoqZD-283" value="" style="endArrow=none;html=1;rounded=0;exitX=0.75;exitY=0;exitDx=0;exitDy=0;entryX=0;entryY=0.5;entryDx=0;entryDy=0;fillColor=#f5f5f5;strokeColor=#666666;" parent="1" source="15D66pHCM-ideDCtoqZD-252" target="15D66pHCM-ideDCtoqZD-280" edge="1">
          <mxGeometry relative="1" as="geometry">
            <mxPoint x="10" y="390" as="sourcePoint" />
            <mxPoint x="170" y="390" as="targetPoint" />
            <Array as="points">
              <mxPoint x="-50" y="119" />
            </Array>
          </mxGeometry>
        </mxCell>
        <mxCell id="15D66pHCM-ideDCtoqZD-284" value="1" style="resizable=0;html=1;whiteSpace=wrap;align=right;verticalAlign=bottom;" parent="15D66pHCM-ideDCtoqZD-283" connectable="0" vertex="1">
          <mxGeometry x="1" relative="1" as="geometry">
            <mxPoint x="5" as="offset" />
          </mxGeometry>
        </mxCell>
        <mxCell id="15D66pHCM-ideDCtoqZD-285" value="" style="endArrow=none;html=1;rounded=0;exitX=0;exitY=1;exitDx=0;exitDy=0;entryX=1;entryY=0.5;entryDx=0;entryDy=0;fillColor=#f5f5f5;strokeColor=#666666;" parent="1" source="15D66pHCM-ideDCtoqZD-58" target="15D66pHCM-ideDCtoqZD-280" edge="1">
          <mxGeometry relative="1" as="geometry">
            <mxPoint x="10" y="280" as="sourcePoint" />
            <mxPoint x="290" y="270" as="targetPoint" />
            <Array as="points">
              <mxPoint x="430" y="119" />
            </Array>
          </mxGeometry>
        </mxCell>
        <mxCell id="15D66pHCM-ideDCtoqZD-286" value="N" style="resizable=0;html=1;whiteSpace=wrap;align=right;verticalAlign=bottom;" parent="15D66pHCM-ideDCtoqZD-285" connectable="0" vertex="1">
          <mxGeometry x="1" relative="1" as="geometry">
            <mxPoint x="2" y="-4" as="offset" />
          </mxGeometry>
        </mxCell>
        <mxCell id="15D66pHCM-ideDCtoqZD-297" value="CONTACTS" style="shape=rhombus;perimeter=rhombusPerimeter;whiteSpace=wrap;html=1;align=center;" parent="1" vertex="1">
          <mxGeometry x="-420" y="520" width="120" height="60" as="geometry" />
        </mxCell>
        <mxCell id="15D66pHCM-ideDCtoqZD-300" value="" style="endArrow=none;html=1;rounded=0;entryX=0;entryY=0.5;entryDx=0;entryDy=0;exitX=1;exitY=0.25;exitDx=0;exitDy=0;" parent="1" source="_Os3ovWYdSZybvVUTS0H-77" target="15D66pHCM-ideDCtoqZD-297" edge="1">
          <mxGeometry relative="1" as="geometry">
            <mxPoint x="-474.96" y="629.22" as="sourcePoint" />
            <mxPoint x="-484.96" y="549.22" as="targetPoint" />
          </mxGeometry>
        </mxCell>
        <mxCell id="15D66pHCM-ideDCtoqZD-301" value="1" style="resizable=0;html=1;whiteSpace=wrap;align=right;verticalAlign=bottom;" parent="15D66pHCM-ideDCtoqZD-300" connectable="0" vertex="1">
          <mxGeometry x="1" relative="1" as="geometry" />
        </mxCell>
        <mxCell id="15D66pHCM-ideDCtoqZD-309" value="HR" style="whiteSpace=wrap;html=1;align=center;" parent="1" vertex="1">
          <mxGeometry x="-290" y="849.54" width="120" height="78.75" as="geometry" />
        </mxCell>
        <mxCell id="15D66pHCM-ideDCtoqZD-310" value="Administration" style="whiteSpace=wrap;html=1;align=center;fillColor=#f5f5f5;strokeColor=#666666;fontColor=#333333;" parent="1" vertex="1">
          <mxGeometry x="627.5" y="1425" width="185" height="65" as="geometry" />
        </mxCell>
        <mxCell id="15D66pHCM-ideDCtoqZD-316" value="CONTACTS" style="shape=rhombus;perimeter=rhombusPerimeter;whiteSpace=wrap;html=1;align=center;" parent="1" vertex="1">
          <mxGeometry x="870" y="1300" width="120" height="60" as="geometry" />
        </mxCell>
        <mxCell id="15D66pHCM-ideDCtoqZD-318" value="" style="shape=link;html=1;rounded=0;entryX=0.5;entryY=0;entryDx=0;entryDy=0;exitX=0;exitY=0.5;exitDx=0;exitDy=0;" parent="1" source="_Os3ovWYdSZybvVUTS0H-35" target="15D66pHCM-ideDCtoqZD-316" edge="1">
          <mxGeometry relative="1" as="geometry">
            <mxPoint x="410" y="890" as="sourcePoint" />
            <mxPoint x="570" y="890" as="targetPoint" />
            <Array as="points">
              <mxPoint x="930" y="715" />
            </Array>
          </mxGeometry>
        </mxCell>
        <mxCell id="15D66pHCM-ideDCtoqZD-319" value="N" style="resizable=0;html=1;whiteSpace=wrap;align=right;verticalAlign=bottom;" parent="15D66pHCM-ideDCtoqZD-318" connectable="0" vertex="1">
          <mxGeometry x="1" relative="1" as="geometry">
            <mxPoint x="20" y="5" as="offset" />
          </mxGeometry>
        </mxCell>
        <mxCell id="15D66pHCM-ideDCtoqZD-320" value="" style="endArrow=none;html=1;rounded=0;entryX=0.5;entryY=1;entryDx=0;entryDy=0;exitX=1;exitY=0;exitDx=0;exitDy=0;" parent="1" source="15D66pHCM-ideDCtoqZD-310" target="15D66pHCM-ideDCtoqZD-316" edge="1">
          <mxGeometry relative="1" as="geometry">
            <mxPoint x="742.5" y="885" as="sourcePoint" />
            <mxPoint x="902.5" y="885" as="targetPoint" />
            <Array as="points">
              <mxPoint x="930" y="1425" />
            </Array>
          </mxGeometry>
        </mxCell>
        <mxCell id="15D66pHCM-ideDCtoqZD-321" value="M" style="resizable=0;html=1;whiteSpace=wrap;align=right;verticalAlign=bottom;" parent="15D66pHCM-ideDCtoqZD-320" connectable="0" vertex="1">
          <mxGeometry x="1" relative="1" as="geometry">
            <mxPoint x="20" y="20" as="offset" />
          </mxGeometry>
        </mxCell>
        <mxCell id="15D66pHCM-ideDCtoqZD-323" value="HIRES" style="shape=rhombus;perimeter=rhombusPerimeter;whiteSpace=wrap;html=1;align=center;" parent="1" vertex="1">
          <mxGeometry x="-584.49" y="825" width="90" height="45" as="geometry" />
        </mxCell>
        <mxCell id="15D66pHCM-ideDCtoqZD-324" value="HIRES" style="shape=rhombus;perimeter=rhombusPerimeter;whiteSpace=wrap;html=1;align=center;" parent="1" vertex="1">
          <mxGeometry x="-260" y="746.72" width="120" height="60" as="geometry" />
        </mxCell>
        <mxCell id="15D66pHCM-ideDCtoqZD-325" value="HIRES" style="shape=rhombus;perimeter=rhombusPerimeter;whiteSpace=wrap;html=1;align=center;" parent="1" vertex="1">
          <mxGeometry x="-25" y="870" width="120" height="60" as="geometry" />
        </mxCell>
        <mxCell id="15D66pHCM-ideDCtoqZD-327" value="" style="endArrow=none;html=1;rounded=0;entryX=1;entryY=0.5;entryDx=0;entryDy=0;exitX=0;exitY=0;exitDx=0;exitDy=0;" parent="1" source="15D66pHCM-ideDCtoqZD-309" target="15D66pHCM-ideDCtoqZD-323" edge="1">
          <mxGeometry relative="1" as="geometry">
            <mxPoint x="-290" y="843.76" as="sourcePoint" />
            <mxPoint x="-494.4899999999998" y="841.72" as="targetPoint" />
            <Array as="points" />
          </mxGeometry>
        </mxCell>
        <mxCell id="15D66pHCM-ideDCtoqZD-328" value="N" style="resizable=0;html=1;whiteSpace=wrap;align=right;verticalAlign=bottom;" parent="15D66pHCM-ideDCtoqZD-327" connectable="0" vertex="1">
          <mxGeometry x="1" relative="1" as="geometry">
            <mxPoint x="19" y="30" as="offset" />
          </mxGeometry>
        </mxCell>
        <mxCell id="15D66pHCM-ideDCtoqZD-329" value="" style="endArrow=none;html=1;rounded=0;entryX=0;entryY=0.5;entryDx=0;entryDy=0;exitX=1.014;exitY=0.603;exitDx=0;exitDy=0;exitPerimeter=0;" parent="1" source="15D66pHCM-ideDCtoqZD-309" target="15D66pHCM-ideDCtoqZD-325" edge="1">
          <mxGeometry relative="1" as="geometry">
            <mxPoint x="30" y="670" as="sourcePoint" />
            <mxPoint x="190" y="670" as="targetPoint" />
          </mxGeometry>
        </mxCell>
        <mxCell id="15D66pHCM-ideDCtoqZD-330" value="N" style="resizable=0;html=1;whiteSpace=wrap;align=right;verticalAlign=bottom;" parent="15D66pHCM-ideDCtoqZD-329" connectable="0" vertex="1">
          <mxGeometry x="1" relative="1" as="geometry" />
        </mxCell>
        <mxCell id="15D66pHCM-ideDCtoqZD-331" value="" style="endArrow=none;html=1;rounded=0;entryX=0.5;entryY=1;entryDx=0;entryDy=0;exitX=0.75;exitY=0;exitDx=0;exitDy=0;" parent="1" source="15D66pHCM-ideDCtoqZD-309" target="15D66pHCM-ideDCtoqZD-324" edge="1">
          <mxGeometry relative="1" as="geometry">
            <mxPoint x="30" y="670" as="sourcePoint" />
            <mxPoint x="190" y="670" as="targetPoint" />
          </mxGeometry>
        </mxCell>
        <mxCell id="15D66pHCM-ideDCtoqZD-332" value="N" style="resizable=0;html=1;whiteSpace=wrap;align=right;verticalAlign=bottom;" parent="15D66pHCM-ideDCtoqZD-331" connectable="0" vertex="1">
          <mxGeometry x="1" relative="1" as="geometry">
            <mxPoint x="-12" y="18" as="offset" />
          </mxGeometry>
        </mxCell>
        <mxCell id="15D66pHCM-ideDCtoqZD-333" value="" style="shape=link;html=1;rounded=0;exitX=0.25;exitY=0;exitDx=0;exitDy=0;entryX=1;entryY=0.5;entryDx=0;entryDy=0;" parent="1" source="15D66pHCM-ideDCtoqZD-165" target="15D66pHCM-ideDCtoqZD-325" edge="1">
          <mxGeometry relative="1" as="geometry">
            <mxPoint x="75" y="836.25" as="sourcePoint" />
            <mxPoint x="153" y="881" as="targetPoint" />
            <Array as="points">
              <mxPoint x="136" y="900" />
            </Array>
          </mxGeometry>
        </mxCell>
        <mxCell id="15D66pHCM-ideDCtoqZD-334" value="M" style="resizable=0;html=1;whiteSpace=wrap;align=right;verticalAlign=bottom;" parent="15D66pHCM-ideDCtoqZD-333" connectable="0" vertex="1">
          <mxGeometry x="1" relative="1" as="geometry">
            <mxPoint y="-8" as="offset" />
          </mxGeometry>
        </mxCell>
        <mxCell id="15D66pHCM-ideDCtoqZD-337" value="" style="shape=link;html=1;rounded=0;entryX=0.5;entryY=0;entryDx=0;entryDy=0;exitX=0;exitY=0.75;exitDx=0;exitDy=0;" parent="1" source="15D66pHCM-ideDCtoqZD-252" target="15D66pHCM-ideDCtoqZD-324" edge="1">
          <mxGeometry relative="1" as="geometry">
            <mxPoint x="30" y="670" as="sourcePoint" />
            <mxPoint x="190" y="670" as="targetPoint" />
            <Array as="points">
              <mxPoint x="-200" y="573" />
            </Array>
          </mxGeometry>
        </mxCell>
        <mxCell id="15D66pHCM-ideDCtoqZD-338" value="M" style="resizable=0;html=1;whiteSpace=wrap;align=right;verticalAlign=bottom;" parent="15D66pHCM-ideDCtoqZD-337" connectable="0" vertex="1">
          <mxGeometry x="1" relative="1" as="geometry">
            <mxPoint x="-12" as="offset" />
          </mxGeometry>
        </mxCell>
        <mxCell id="15D66pHCM-ideDCtoqZD-339" value="" style="shape=link;html=1;rounded=0;entryX=0.5;entryY=0;entryDx=0;entryDy=0;exitX=1;exitY=0.75;exitDx=0;exitDy=0;" parent="1" source="_Os3ovWYdSZybvVUTS0H-77" target="15D66pHCM-ideDCtoqZD-323" edge="1">
          <mxGeometry relative="1" as="geometry">
            <mxPoint x="-304.96" y="739.22" as="sourcePoint" />
            <mxPoint x="-522.46" y="665.47" as="targetPoint" />
            <Array as="points">
              <mxPoint x="-540" y="580" />
            </Array>
          </mxGeometry>
        </mxCell>
        <mxCell id="15D66pHCM-ideDCtoqZD-340" value="M" style="resizable=0;html=1;whiteSpace=wrap;align=right;verticalAlign=bottom;" parent="15D66pHCM-ideDCtoqZD-339" connectable="0" vertex="1">
          <mxGeometry x="1" relative="1" as="geometry">
            <mxPoint x="20" y="-3" as="offset" />
          </mxGeometry>
        </mxCell>
        <mxCell id="15D66pHCM-ideDCtoqZD-341" value="Name" style="ellipse;whiteSpace=wrap;html=1;align=center;" parent="1" vertex="1">
          <mxGeometry x="567.5" y="1535" width="100" height="40" as="geometry" />
        </mxCell>
        <mxCell id="15D66pHCM-ideDCtoqZD-342" value="" style="endArrow=none;html=1;rounded=0;entryX=1;entryY=0;entryDx=0;entryDy=0;exitX=0.25;exitY=1;exitDx=0;exitDy=0;" parent="1" source="15D66pHCM-ideDCtoqZD-310" target="15D66pHCM-ideDCtoqZD-341" edge="1">
          <mxGeometry relative="1" as="geometry">
            <mxPoint x="462.5" y="1245" as="sourcePoint" />
            <mxPoint x="622.5" y="1245" as="targetPoint" />
          </mxGeometry>
        </mxCell>
        <mxCell id="15D66pHCM-ideDCtoqZD-344" value="" style="endArrow=none;html=1;rounded=0;entryX=0;entryY=1;entryDx=0;entryDy=0;exitX=1;exitY=0;exitDx=0;exitDy=0;" parent="1" source="15D66pHCM-ideDCtoqZD-345" target="15D66pHCM-ideDCtoqZD-310" edge="1">
          <mxGeometry relative="1" as="geometry">
            <mxPoint x="580" y="1515" as="sourcePoint" />
            <mxPoint x="742.5" y="1555" as="targetPoint" />
          </mxGeometry>
        </mxCell>
        <mxCell id="15D66pHCM-ideDCtoqZD-345" value="Employee_ID" style="ellipse;whiteSpace=wrap;html=1;align=center;fontStyle=4;" parent="1" vertex="1">
          <mxGeometry x="467.5" y="1510" width="100" height="40" as="geometry" />
        </mxCell>
        <mxCell id="15D66pHCM-ideDCtoqZD-346" value="Role" style="ellipse;whiteSpace=wrap;html=1;align=center;" parent="1" vertex="1">
          <mxGeometry x="687.5" y="1545" width="100" height="40" as="geometry" />
        </mxCell>
        <mxCell id="15D66pHCM-ideDCtoqZD-347" value="" style="endArrow=none;html=1;rounded=0;entryX=0.5;entryY=0;entryDx=0;entryDy=0;exitX=0.5;exitY=1;exitDx=0;exitDy=0;" parent="1" source="15D66pHCM-ideDCtoqZD-310" target="15D66pHCM-ideDCtoqZD-346" edge="1">
          <mxGeometry relative="1" as="geometry">
            <mxPoint x="582.5" y="1435" as="sourcePoint" />
            <mxPoint x="742.5" y="1435" as="targetPoint" />
          </mxGeometry>
        </mxCell>
        <mxCell id="15D66pHCM-ideDCtoqZD-348" value="Salary" style="ellipse;whiteSpace=wrap;html=1;align=center;" parent="1" vertex="1">
          <mxGeometry x="805" y="1525" width="100" height="40" as="geometry" />
        </mxCell>
        <mxCell id="15D66pHCM-ideDCtoqZD-349" value="" style="endArrow=none;html=1;rounded=0;entryX=0;entryY=0;entryDx=0;entryDy=0;" parent="1" source="15D66pHCM-ideDCtoqZD-310" target="15D66pHCM-ideDCtoqZD-348" edge="1">
          <mxGeometry relative="1" as="geometry">
            <mxPoint x="582.5" y="1435" as="sourcePoint" />
            <mxPoint x="742.5" y="1435" as="targetPoint" />
          </mxGeometry>
        </mxCell>
        <mxCell id="15D66pHCM-ideDCtoqZD-350" value="Contact_Info" style="ellipse;whiteSpace=wrap;html=1;align=center;" parent="1" vertex="1">
          <mxGeometry x="840" y="1470" width="100" height="40" as="geometry" />
        </mxCell>
        <mxCell id="15D66pHCM-ideDCtoqZD-351" value="" style="endArrow=none;html=1;rounded=0;entryX=1;entryY=0.5;entryDx=0;entryDy=0;exitX=0;exitY=0.5;exitDx=0;exitDy=0;" parent="1" source="15D66pHCM-ideDCtoqZD-352" target="15D66pHCM-ideDCtoqZD-350" edge="1">
          <mxGeometry relative="1" as="geometry">
            <mxPoint x="1012.5" y="1445" as="sourcePoint" />
            <mxPoint x="742.5" y="1435" as="targetPoint" />
          </mxGeometry>
        </mxCell>
        <mxCell id="15D66pHCM-ideDCtoqZD-353" value="Email" style="ellipse;whiteSpace=wrap;html=1;align=center;" parent="1" vertex="1">
          <mxGeometry x="965" y="1490" width="100" height="40" as="geometry" />
        </mxCell>
        <mxCell id="15D66pHCM-ideDCtoqZD-354" value="" style="endArrow=none;html=1;rounded=0;entryX=1;entryY=0.5;entryDx=0;entryDy=0;exitX=0;exitY=0.5;exitDx=0;exitDy=0;" parent="1" source="15D66pHCM-ideDCtoqZD-353" target="15D66pHCM-ideDCtoqZD-350" edge="1">
          <mxGeometry relative="1" as="geometry">
            <mxPoint x="582.5" y="1435" as="sourcePoint" />
            <mxPoint x="742.5" y="1435" as="targetPoint" />
          </mxGeometry>
        </mxCell>
        <mxCell id="15D66pHCM-ideDCtoqZD-356" value="" style="endArrow=none;html=1;rounded=0;entryX=0;entryY=0.5;entryDx=0;entryDy=0;exitX=1;exitY=1;exitDx=0;exitDy=0;" parent="1" source="15D66pHCM-ideDCtoqZD-310" target="15D66pHCM-ideDCtoqZD-350" edge="1">
          <mxGeometry relative="1" as="geometry">
            <mxPoint x="582.5" y="1435" as="sourcePoint" />
            <mxPoint x="742.5" y="1435" as="targetPoint" />
          </mxGeometry>
        </mxCell>
        <mxCell id="15D66pHCM-ideDCtoqZD-357" value="Address" style="ellipse;whiteSpace=wrap;html=1;align=center;" parent="1" vertex="1">
          <mxGeometry x="485" y="1450" width="100" height="40" as="geometry" />
        </mxCell>
        <mxCell id="15D66pHCM-ideDCtoqZD-358" value="" style="endArrow=none;html=1;rounded=0;entryX=0;entryY=0.75;entryDx=0;entryDy=0;exitX=1;exitY=0.5;exitDx=0;exitDy=0;" parent="1" source="15D66pHCM-ideDCtoqZD-357" target="15D66pHCM-ideDCtoqZD-310" edge="1">
          <mxGeometry relative="1" as="geometry">
            <mxPoint x="582.5" y="1435" as="sourcePoint" />
            <mxPoint x="742.5" y="1435" as="targetPoint" />
          </mxGeometry>
        </mxCell>
        <mxCell id="15D66pHCM-ideDCtoqZD-360" value="Name" style="ellipse;whiteSpace=wrap;html=1;align=center;" parent="1" vertex="1">
          <mxGeometry x="-232.5" y="1010" width="62.5" height="22.5" as="geometry" />
        </mxCell>
        <mxCell id="15D66pHCM-ideDCtoqZD-361" value="" style="endArrow=none;html=1;rounded=0;entryX=0.5;entryY=0;entryDx=0;entryDy=0;exitX=0.75;exitY=1;exitDx=0;exitDy=0;" parent="1" source="15D66pHCM-ideDCtoqZD-309" target="15D66pHCM-ideDCtoqZD-360" edge="1">
          <mxGeometry relative="1" as="geometry">
            <mxPoint x="-406.25" y="1130" as="sourcePoint" />
            <mxPoint x="-457.5" y="885" as="targetPoint" />
          </mxGeometry>
        </mxCell>
        <mxCell id="15D66pHCM-ideDCtoqZD-362" value="" style="endArrow=none;html=1;rounded=0;entryX=0;entryY=0.75;entryDx=0;entryDy=0;exitX=1;exitY=0.5;exitDx=0;exitDy=0;" parent="1" source="15D66pHCM-ideDCtoqZD-363" target="15D66pHCM-ideDCtoqZD-309" edge="1">
          <mxGeometry relative="1" as="geometry">
            <mxPoint x="-500" y="1155" as="sourcePoint" />
            <mxPoint x="-452.5" y="1130" as="targetPoint" />
          </mxGeometry>
        </mxCell>
        <mxCell id="15D66pHCM-ideDCtoqZD-363" value="Employee_ID" style="ellipse;whiteSpace=wrap;html=1;align=center;fontStyle=4;" parent="1" vertex="1">
          <mxGeometry x="-412.5" y="899.54" width="100" height="40" as="geometry" />
        </mxCell>
        <mxCell id="15D66pHCM-ideDCtoqZD-364" value="Role" style="ellipse;whiteSpace=wrap;html=1;align=center;" parent="1" vertex="1">
          <mxGeometry x="-190" y="977.04" width="60" height="30" as="geometry" />
        </mxCell>
        <mxCell id="15D66pHCM-ideDCtoqZD-365" value="" style="endArrow=none;html=1;rounded=0;entryX=0.5;entryY=0;entryDx=0;entryDy=0;exitX=1;exitY=1;exitDx=0;exitDy=0;" parent="1" source="15D66pHCM-ideDCtoqZD-309" target="15D66pHCM-ideDCtoqZD-364" edge="1">
          <mxGeometry relative="1" as="geometry">
            <mxPoint x="-360" y="1130" as="sourcePoint" />
            <mxPoint x="-337.5" y="1075" as="targetPoint" />
          </mxGeometry>
        </mxCell>
        <mxCell id="15D66pHCM-ideDCtoqZD-366" value="Salary" style="ellipse;whiteSpace=wrap;html=1;align=center;" parent="1" vertex="1">
          <mxGeometry x="-345" y="939.54" width="45" height="27.5" as="geometry" />
        </mxCell>
        <mxCell id="15D66pHCM-ideDCtoqZD-367" value="" style="endArrow=none;html=1;rounded=0;entryX=1;entryY=0;entryDx=0;entryDy=0;exitX=0;exitY=1;exitDx=0;exitDy=0;" parent="1" source="15D66pHCM-ideDCtoqZD-309" target="15D66pHCM-ideDCtoqZD-366" edge="1">
          <mxGeometry relative="1" as="geometry">
            <mxPoint x="-313.75" y="1130" as="sourcePoint" />
            <mxPoint x="-337.5" y="1075" as="targetPoint" />
          </mxGeometry>
        </mxCell>
        <mxCell id="15D66pHCM-ideDCtoqZD-368" value="Contact_Info" style="ellipse;whiteSpace=wrap;html=1;align=center;" parent="1" vertex="1">
          <mxGeometry x="-320" y="967.04" width="100" height="40" as="geometry" />
        </mxCell>
        <mxCell id="15D66pHCM-ideDCtoqZD-370" value="Email" style="ellipse;whiteSpace=wrap;html=1;align=center;" parent="1" vertex="1">
          <mxGeometry x="-312.5" y="1038.77" width="100" height="40" as="geometry" />
        </mxCell>
        <mxCell id="15D66pHCM-ideDCtoqZD-371" value="" style="endArrow=none;html=1;rounded=0;entryX=0.5;entryY=1;entryDx=0;entryDy=0;exitX=0.5;exitY=0;exitDx=0;exitDy=0;" parent="1" source="15D66pHCM-ideDCtoqZD-370" target="15D66pHCM-ideDCtoqZD-368" edge="1">
          <mxGeometry relative="1" as="geometry">
            <mxPoint x="-497.5" y="1075" as="sourcePoint" />
            <mxPoint x="-337.5" y="1075" as="targetPoint" />
          </mxGeometry>
        </mxCell>
        <mxCell id="15D66pHCM-ideDCtoqZD-372" value="" style="endArrow=none;html=1;rounded=0;entryX=0.5;entryY=0;entryDx=0;entryDy=0;exitX=0.5;exitY=1;exitDx=0;exitDy=0;" parent="1" source="15D66pHCM-ideDCtoqZD-309" target="15D66pHCM-ideDCtoqZD-368" edge="1">
          <mxGeometry relative="1" as="geometry">
            <mxPoint x="-267.5" y="1130" as="sourcePoint" />
            <mxPoint x="-337.5" y="1075" as="targetPoint" />
          </mxGeometry>
        </mxCell>
        <mxCell id="15D66pHCM-ideDCtoqZD-373" value="Address" style="ellipse;whiteSpace=wrap;html=1;align=center;" parent="1" vertex="1">
          <mxGeometry x="-390" y="859.54" width="70" height="30" as="geometry" />
        </mxCell>
        <mxCell id="15D66pHCM-ideDCtoqZD-374" value="" style="endArrow=none;html=1;rounded=0;entryX=0.001;entryY=0.32;entryDx=0;entryDy=0;exitX=1;exitY=0.5;exitDx=0;exitDy=0;entryPerimeter=0;" parent="1" source="15D66pHCM-ideDCtoqZD-373" target="15D66pHCM-ideDCtoqZD-309" edge="1">
          <mxGeometry relative="1" as="geometry">
            <mxPoint x="-497.5" y="1075" as="sourcePoint" />
            <mxPoint x="-452.5" y="1113.75" as="targetPoint" />
          </mxGeometry>
        </mxCell>
        <mxCell id="15D66pHCM-ideDCtoqZD-376" value="Phone_Number" style="ellipse;whiteSpace=wrap;html=1;align=center;" parent="1" vertex="1">
          <mxGeometry x="-400" y="1010" width="100" height="40" as="geometry" />
        </mxCell>
        <mxCell id="15D66pHCM-ideDCtoqZD-377" value="" style="endArrow=none;html=1;rounded=0;exitX=0;exitY=1;exitDx=0;exitDy=0;entryX=1;entryY=0;entryDx=0;entryDy=0;" parent="1" source="15D66pHCM-ideDCtoqZD-368" target="15D66pHCM-ideDCtoqZD-376" edge="1">
          <mxGeometry relative="1" as="geometry">
            <mxPoint x="-290" y="1257.5" as="sourcePoint" />
            <mxPoint x="-130" y="1257.5" as="targetPoint" />
          </mxGeometry>
        </mxCell>
        <mxCell id="-TUUEZ4lwArsrJGdlQ5--26" value="Emergency_Contact_Chef" style="shape=ext;margin=3;double=1;whiteSpace=wrap;html=1;align=center;" parent="1" vertex="1">
          <mxGeometry x="-515.51" y="1232.5" width="164.49" height="62.5" as="geometry" />
        </mxCell>
        <mxCell id="-TUUEZ4lwArsrJGdlQ5--27" value="DEPENDS_ON" style="shape=rhombus;double=1;perimeter=rhombusPerimeter;whiteSpace=wrap;html=1;align=center;direction=south;fillColor=#f5f5f5;strokeColor=#666666;fontColor=#333333;" parent="1" vertex="1">
          <mxGeometry x="-620.51" y="883.89" width="105" height="130" as="geometry" />
        </mxCell>
        <mxCell id="-TUUEZ4lwArsrJGdlQ5--28" value="DEPENDS_ON" style="shape=rhombus;double=1;perimeter=rhombusPerimeter;whiteSpace=wrap;html=1;align=center;" parent="1" vertex="1">
          <mxGeometry x="-350" y="1110" width="130" height="60" as="geometry" />
        </mxCell>
        <mxCell id="-TUUEZ4lwArsrJGdlQ5--29" value="DEPENDS_ON" style="shape=rhombus;double=1;perimeter=rhombusPerimeter;whiteSpace=wrap;html=1;align=center;direction=south;" parent="1" vertex="1">
          <mxGeometry x="-220" y="1170" width="105" height="130" as="geometry" />
        </mxCell>
        <mxCell id="-TUUEZ4lwArsrJGdlQ5--30" value="" style="shape=link;html=1;rounded=0;exitX=1;exitY=1;exitDx=0;exitDy=0;entryX=0;entryY=0.5;entryDx=0;entryDy=0;fillColor=#f5f5f5;strokeColor=#666666;" parent="1" source="_Os3ovWYdSZybvVUTS0H-77" target="-TUUEZ4lwArsrJGdlQ5--27" edge="1">
          <mxGeometry relative="1" as="geometry">
            <mxPoint x="-590" y="870" as="sourcePoint" />
            <mxPoint x="-430" y="870" as="targetPoint" />
            <Array as="points">
              <mxPoint x="-640" y="600" />
              <mxPoint x="-650" y="880" />
            </Array>
          </mxGeometry>
        </mxCell>
        <mxCell id="-TUUEZ4lwArsrJGdlQ5--31" value="1" style="resizable=0;html=1;whiteSpace=wrap;align=right;verticalAlign=bottom;" parent="-TUUEZ4lwArsrJGdlQ5--30" connectable="0" vertex="1">
          <mxGeometry x="1" relative="1" as="geometry">
            <mxPoint x="-7" as="offset" />
          </mxGeometry>
        </mxCell>
        <mxCell id="-TUUEZ4lwArsrJGdlQ5--39" value="" style="shape=link;html=1;rounded=0;entryX=0.5;entryY=1;entryDx=0;entryDy=0;exitX=0.998;exitY=0.921;exitDx=0;exitDy=0;exitPerimeter=0;" parent="1" source="-TUUEZ4lwArsrJGdlQ5--26" target="-TUUEZ4lwArsrJGdlQ5--29" edge="1">
          <mxGeometry relative="1" as="geometry">
            <mxPoint x="-250" y="1240" as="sourcePoint" />
            <mxPoint x="-170" y="1000" as="targetPoint" />
            <Array as="points" />
          </mxGeometry>
        </mxCell>
        <mxCell id="-TUUEZ4lwArsrJGdlQ5--40" value="N" style="resizable=0;html=1;whiteSpace=wrap;align=right;verticalAlign=bottom;" parent="-TUUEZ4lwArsrJGdlQ5--39" connectable="0" vertex="1">
          <mxGeometry x="1" relative="1" as="geometry">
            <mxPoint y="-5" as="offset" />
          </mxGeometry>
        </mxCell>
        <mxCell id="-TUUEZ4lwArsrJGdlQ5--41" style="edgeStyle=orthogonalEdgeStyle;rounded=0;orthogonalLoop=1;jettySize=auto;html=1;exitX=0.5;exitY=1;exitDx=0;exitDy=0;" parent="1" source="15D66pHCM-ideDCtoqZD-168" target="15D66pHCM-ideDCtoqZD-168" edge="1">
          <mxGeometry relative="1" as="geometry" />
        </mxCell>
        <mxCell id="-TUUEZ4lwArsrJGdlQ5--42" value="" style="shape=link;html=1;rounded=0;entryX=0.5;entryY=0;entryDx=0;entryDy=0;exitX=0;exitY=1;exitDx=0;exitDy=0;" parent="1" source="15D66pHCM-ideDCtoqZD-165" target="-TUUEZ4lwArsrJGdlQ5--29" edge="1">
          <mxGeometry relative="1" as="geometry">
            <mxPoint x="-230" y="940" as="sourcePoint" />
            <mxPoint x="-70" y="940" as="targetPoint" />
            <Array as="points">
              <mxPoint x="98" y="1235" />
            </Array>
          </mxGeometry>
        </mxCell>
        <mxCell id="-TUUEZ4lwArsrJGdlQ5--43" value="1" style="resizable=0;html=1;whiteSpace=wrap;align=right;verticalAlign=bottom;" parent="-TUUEZ4lwArsrJGdlQ5--42" connectable="0" vertex="1">
          <mxGeometry x="1" relative="1" as="geometry">
            <mxPoint x="10" y="-5" as="offset" />
          </mxGeometry>
        </mxCell>
        <mxCell id="-TUUEZ4lwArsrJGdlQ5--44" value="" style="shape=link;html=1;rounded=0;entryX=1;entryY=0.5;entryDx=0;entryDy=0;exitX=0.5;exitY=1;exitDx=0;exitDy=0;" parent="1" source="15D66pHCM-ideDCtoqZD-252" target="-TUUEZ4lwArsrJGdlQ5--28" edge="1">
          <mxGeometry relative="1" as="geometry">
            <mxPoint x="-52.5" y="593.5100000000001" as="sourcePoint" />
            <mxPoint x="-192.5" y="1142.65" as="targetPoint" />
            <Array as="points">
              <mxPoint x="-80" y="1140" />
            </Array>
          </mxGeometry>
        </mxCell>
        <mxCell id="-TUUEZ4lwArsrJGdlQ5--45" value="1" style="resizable=0;html=1;whiteSpace=wrap;align=right;verticalAlign=bottom;" parent="-TUUEZ4lwArsrJGdlQ5--44" connectable="0" vertex="1">
          <mxGeometry x="1" relative="1" as="geometry">
            <mxPoint x="5" y="-10" as="offset" />
          </mxGeometry>
        </mxCell>
        <mxCell id="-TUUEZ4lwArsrJGdlQ5--48" value="Menu" style="whiteSpace=wrap;html=1;align=center;" parent="1" vertex="1">
          <mxGeometry x="190" y="420.85999999999996" width="100" height="40" as="geometry" />
        </mxCell>
        <mxCell id="-TUUEZ4lwArsrJGdlQ5--49" value="Menu ID" style="ellipse;whiteSpace=wrap;html=1;align=center;fontStyle=4;" parent="1" vertex="1">
          <mxGeometry x="335" y="377.5" width="100" height="40" as="geometry" />
        </mxCell>
        <mxCell id="-TUUEZ4lwArsrJGdlQ5--50" value="Image" style="ellipse;whiteSpace=wrap;html=1;align=center;" parent="1" vertex="1">
          <mxGeometry x="310" y="332.5" width="100" height="40" as="geometry" />
        </mxCell>
        <mxCell id="-TUUEZ4lwArsrJGdlQ5--51" value="Category" style="ellipse;whiteSpace=wrap;html=1;align=center;" parent="1" vertex="1">
          <mxGeometry x="255" y="286.25" width="100" height="40" as="geometry" />
        </mxCell>
        <mxCell id="-TUUEZ4lwArsrJGdlQ5--52" value="Start_Time" style="ellipse;whiteSpace=wrap;html=1;align=center;" parent="1" vertex="1">
          <mxGeometry x="82.5" y="414.33" width="100" height="40" as="geometry" />
        </mxCell>
        <mxCell id="-TUUEZ4lwArsrJGdlQ5--53" value="End_Time" style="ellipse;whiteSpace=wrap;html=1;align=center;" parent="1" vertex="1">
          <mxGeometry x="60" y="365" width="100" height="40" as="geometry" />
        </mxCell>
        <mxCell id="-TUUEZ4lwArsrJGdlQ5--57" value="" style="endArrow=none;html=1;rounded=0;exitX=1;exitY=0.5;exitDx=0;exitDy=0;entryX=0;entryY=0.5;entryDx=0;entryDy=0;" parent="1" source="-TUUEZ4lwArsrJGdlQ5--52" target="-TUUEZ4lwArsrJGdlQ5--48" edge="1">
          <mxGeometry relative="1" as="geometry">
            <mxPoint x="250" y="410" as="sourcePoint" />
            <mxPoint x="410" y="410" as="targetPoint" />
          </mxGeometry>
        </mxCell>
        <mxCell id="-TUUEZ4lwArsrJGdlQ5--58" value="" style="endArrow=none;html=1;rounded=0;exitX=0.96;exitY=0.688;exitDx=0;exitDy=0;exitPerimeter=0;entryX=0;entryY=0;entryDx=0;entryDy=0;" parent="1" source="-TUUEZ4lwArsrJGdlQ5--53" target="-TUUEZ4lwArsrJGdlQ5--48" edge="1">
          <mxGeometry relative="1" as="geometry">
            <mxPoint x="250" y="410" as="sourcePoint" />
            <mxPoint x="410" y="410" as="targetPoint" />
          </mxGeometry>
        </mxCell>
        <mxCell id="-TUUEZ4lwArsrJGdlQ5--59" value="" style="endArrow=none;html=1;rounded=0;exitX=0.619;exitY=0.958;exitDx=0;exitDy=0;entryX=0.25;entryY=0;entryDx=0;entryDy=0;exitPerimeter=0;" parent="1" source="Mz4xzUT4oG2Xsr-lTTY3-7" target="-TUUEZ4lwArsrJGdlQ5--48" edge="1">
          <mxGeometry relative="1" as="geometry">
            <mxPoint x="132.5" y="350" as="sourcePoint" />
            <mxPoint x="410" y="410" as="targetPoint" />
          </mxGeometry>
        </mxCell>
        <mxCell id="-TUUEZ4lwArsrJGdlQ5--60" value="" style="endArrow=none;html=1;rounded=0;exitX=0.5;exitY=1;exitDx=0;exitDy=0;entryX=0.5;entryY=0;entryDx=0;entryDy=0;" parent="1" source="-TUUEZ4lwArsrJGdlQ5--51" target="-TUUEZ4lwArsrJGdlQ5--48" edge="1">
          <mxGeometry relative="1" as="geometry">
            <mxPoint x="250" y="410" as="sourcePoint" />
            <mxPoint x="410" y="410" as="targetPoint" />
          </mxGeometry>
        </mxCell>
        <mxCell id="-TUUEZ4lwArsrJGdlQ5--61" value="" style="endArrow=none;html=1;rounded=0;entryX=0.5;entryY=1;entryDx=0;entryDy=0;exitX=1;exitY=0;exitDx=0;exitDy=0;" parent="1" source="-TUUEZ4lwArsrJGdlQ5--48" target="-TUUEZ4lwArsrJGdlQ5--50" edge="1">
          <mxGeometry relative="1" as="geometry">
            <mxPoint x="250" y="410" as="sourcePoint" />
            <mxPoint x="410" y="410" as="targetPoint" />
          </mxGeometry>
        </mxCell>
        <mxCell id="-TUUEZ4lwArsrJGdlQ5--62" value="" style="endArrow=none;html=1;rounded=0;entryX=0;entryY=1;entryDx=0;entryDy=0;exitX=1;exitY=0;exitDx=0;exitDy=0;" parent="1" source="-TUUEZ4lwArsrJGdlQ5--48" target="-TUUEZ4lwArsrJGdlQ5--49" edge="1">
          <mxGeometry relative="1" as="geometry">
            <mxPoint x="250" y="410" as="sourcePoint" />
            <mxPoint x="410" y="410" as="targetPoint" />
          </mxGeometry>
        </mxCell>
        <mxCell id="-TUUEZ4lwArsrJGdlQ5--64" value="CREATES" style="shape=rhombus;perimeter=rhombusPerimeter;whiteSpace=wrap;html=1;align=center;" parent="1" vertex="1">
          <mxGeometry x="152.5" y="620" width="120" height="60" as="geometry" />
        </mxCell>
        <mxCell id="-TUUEZ4lwArsrJGdlQ5--65" value="" style="endArrow=none;html=1;rounded=0;exitX=0.75;exitY=0;exitDx=0;exitDy=0;entryX=0.5;entryY=1;entryDx=0;entryDy=0;" parent="1" source="15D66pHCM-ideDCtoqZD-165" target="-TUUEZ4lwArsrJGdlQ5--64" edge="1">
          <mxGeometry relative="1" as="geometry">
            <mxPoint x="250" y="710" as="sourcePoint" />
            <mxPoint x="410" y="710" as="targetPoint" />
          </mxGeometry>
        </mxCell>
        <mxCell id="-TUUEZ4lwArsrJGdlQ5--66" value="N" style="resizable=0;html=1;whiteSpace=wrap;align=right;verticalAlign=bottom;" parent="-TUUEZ4lwArsrJGdlQ5--65" connectable="0" vertex="1">
          <mxGeometry x="1" relative="1" as="geometry">
            <mxPoint x="-7" y="15" as="offset" />
          </mxGeometry>
        </mxCell>
        <mxCell id="-TUUEZ4lwArsrJGdlQ5--67" value="" style="shape=link;html=1;rounded=0;exitX=0.25;exitY=1;exitDx=0;exitDy=0;entryX=0.5;entryY=0;entryDx=0;entryDy=0;" parent="1" source="-TUUEZ4lwArsrJGdlQ5--48" target="-TUUEZ4lwArsrJGdlQ5--64" edge="1">
          <mxGeometry relative="1" as="geometry">
            <mxPoint x="250" y="710" as="sourcePoint" />
            <mxPoint x="410" y="710" as="targetPoint" />
          </mxGeometry>
        </mxCell>
        <mxCell id="-TUUEZ4lwArsrJGdlQ5--68" value="M" style="resizable=0;html=1;whiteSpace=wrap;align=right;verticalAlign=bottom;" parent="-TUUEZ4lwArsrJGdlQ5--67" connectable="0" vertex="1">
          <mxGeometry x="1" relative="1" as="geometry">
            <mxPoint x="-7" as="offset" />
          </mxGeometry>
        </mxCell>
        <mxCell id="15D66pHCM-ideDCtoqZD-352" value="Phone_Number" style="ellipse;whiteSpace=wrap;html=1;align=center;" parent="1" vertex="1">
          <mxGeometry x="965" y="1447.5" width="100" height="40" as="geometry" />
        </mxCell>
        <mxCell id="-TUUEZ4lwArsrJGdlQ5--71" value="Image" style="ellipse;shape=doubleEllipse;margin=3;whiteSpace=wrap;html=1;align=center;" parent="1" vertex="1">
          <mxGeometry x="-937.0300000000001" y="-7.5" width="100" height="40" as="geometry" />
        </mxCell>
        <mxCell id="-TUUEZ4lwArsrJGdlQ5--73" value="CONTAINS" style="shape=rhombus;perimeter=rhombusPerimeter;whiteSpace=wrap;html=1;align=center;" parent="1" vertex="1">
          <mxGeometry x="410" y="420.86" width="120" height="60" as="geometry" />
        </mxCell>
        <mxCell id="-TUUEZ4lwArsrJGdlQ5--76" value="" style="shape=link;html=1;rounded=0;entryX=1;entryY=0.5;entryDx=0;entryDy=0;exitX=0;exitY=0.25;exitDx=0;exitDy=0;" parent="1" source="_Os3ovWYdSZybvVUTS0H-57" target="-TUUEZ4lwArsrJGdlQ5--73" edge="1">
          <mxGeometry relative="1" as="geometry">
            <mxPoint x="470" y="460" as="sourcePoint" />
            <mxPoint x="630" y="460" as="targetPoint" />
          </mxGeometry>
        </mxCell>
        <mxCell id="-TUUEZ4lwArsrJGdlQ5--77" value="N" style="resizable=0;html=1;whiteSpace=wrap;align=right;verticalAlign=bottom;" parent="-TUUEZ4lwArsrJGdlQ5--76" connectable="0" vertex="1">
          <mxGeometry x="1" relative="1" as="geometry">
            <mxPoint y="-10" as="offset" />
          </mxGeometry>
        </mxCell>
        <mxCell id="-TUUEZ4lwArsrJGdlQ5--78" value="" style="shape=link;html=1;rounded=0;exitX=1;exitY=0.75;exitDx=0;exitDy=0;entryX=0;entryY=0.5;entryDx=0;entryDy=0;" parent="1" source="-TUUEZ4lwArsrJGdlQ5--48" target="-TUUEZ4lwArsrJGdlQ5--73" edge="1">
          <mxGeometry relative="1" as="geometry">
            <mxPoint x="470" y="520" as="sourcePoint" />
            <mxPoint x="630" y="520" as="targetPoint" />
          </mxGeometry>
        </mxCell>
        <mxCell id="-TUUEZ4lwArsrJGdlQ5--79" value="M" style="resizable=0;html=1;whiteSpace=wrap;align=right;verticalAlign=bottom;" parent="-TUUEZ4lwArsrJGdlQ5--78" connectable="0" vertex="1">
          <mxGeometry x="1" relative="1" as="geometry">
            <mxPoint x="10" y="-10" as="offset" />
          </mxGeometry>
        </mxCell>
        <mxCell id="-TUUEZ4lwArsrJGdlQ5--82" value="&lt;span style=&quot;border-bottom: 1px dotted&quot;&gt;Name&lt;/span&gt;" style="ellipse;whiteSpace=wrap;html=1;align=center;" parent="1" vertex="1">
          <mxGeometry x="-548.94" y="1345" width="79.49" height="30" as="geometry" />
        </mxCell>
        <mxCell id="-TUUEZ4lwArsrJGdlQ5--85" value="" style="endArrow=none;html=1;rounded=0;exitX=0.5;exitY=0;exitDx=0;exitDy=0;entryX=0;entryY=1;entryDx=0;entryDy=0;" parent="1" source="-TUUEZ4lwArsrJGdlQ5--82" target="-TUUEZ4lwArsrJGdlQ5--26" edge="1">
          <mxGeometry relative="1" as="geometry">
            <mxPoint x="-419.96000000000004" y="1195" as="sourcePoint" />
            <mxPoint x="-259.96000000000004" y="1195" as="targetPoint" />
          </mxGeometry>
        </mxCell>
        <mxCell id="-TUUEZ4lwArsrJGdlQ5--86" value="Phone_Number" style="ellipse;whiteSpace=wrap;html=1;align=center;" parent="1" vertex="1">
          <mxGeometry x="-459.96000000000004" y="1355" width="100" height="30" as="geometry" />
        </mxCell>
        <mxCell id="-TUUEZ4lwArsrJGdlQ5--87" value="" style="endArrow=none;html=1;rounded=0;exitX=0.5;exitY=0;exitDx=0;exitDy=0;entryX=0.25;entryY=1;entryDx=0;entryDy=0;" parent="1" source="-TUUEZ4lwArsrJGdlQ5--86" target="-TUUEZ4lwArsrJGdlQ5--26" edge="1">
          <mxGeometry relative="1" as="geometry">
            <mxPoint x="-419.96000000000004" y="1195" as="sourcePoint" />
            <mxPoint x="-259.96000000000004" y="1195" as="targetPoint" />
          </mxGeometry>
        </mxCell>
        <mxCell id="-TUUEZ4lwArsrJGdlQ5--88" value="Relation" style="ellipse;whiteSpace=wrap;html=1;align=center;" parent="1" vertex="1">
          <mxGeometry x="-389.49" y="1325" width="65" height="20" as="geometry" />
        </mxCell>
        <mxCell id="-TUUEZ4lwArsrJGdlQ5--89" value="" style="endArrow=none;html=1;rounded=0;exitX=0.5;exitY=0;exitDx=0;exitDy=0;entryX=0.5;entryY=1;entryDx=0;entryDy=0;" parent="1" source="-TUUEZ4lwArsrJGdlQ5--88" target="-TUUEZ4lwArsrJGdlQ5--26" edge="1">
          <mxGeometry relative="1" as="geometry">
            <mxPoint x="-367.46000000000004" y="1325.0000000000005" as="sourcePoint" />
            <mxPoint x="-259.96000000000004" y="1195" as="targetPoint" />
          </mxGeometry>
        </mxCell>
        <mxCell id="-TUUEZ4lwArsrJGdlQ5--90" value="Priority" style="ellipse;whiteSpace=wrap;html=1;align=center;" parent="1" vertex="1">
          <mxGeometry x="-305" y="1320" width="60" height="30" as="geometry" />
        </mxCell>
        <mxCell id="-TUUEZ4lwArsrJGdlQ5--91" value="" style="endArrow=none;html=1;rounded=0;exitX=0;exitY=0;exitDx=0;exitDy=0;entryX=0.75;entryY=1;entryDx=0;entryDy=0;" parent="1" source="-TUUEZ4lwArsrJGdlQ5--90" target="-TUUEZ4lwArsrJGdlQ5--26" edge="1">
          <mxGeometry relative="1" as="geometry">
            <mxPoint x="-235" y="1195" as="sourcePoint" />
            <mxPoint x="-75" y="1195" as="targetPoint" />
          </mxGeometry>
        </mxCell>
        <mxCell id="Mz4xzUT4oG2Xsr-lTTY3-1" value="Images" style="ellipse;shape=doubleEllipse;margin=3;whiteSpace=wrap;html=1;align=center;" parent="1" vertex="1">
          <mxGeometry x="925" y="533.51" width="100" height="40" as="geometry" />
        </mxCell>
        <mxCell id="Mz4xzUT4oG2Xsr-lTTY3-4" value="" style="endArrow=none;html=1;rounded=0;exitX=1;exitY=0.5;exitDx=0;exitDy=0;entryX=0;entryY=1;entryDx=0;entryDy=0;" parent="1" source="_Os3ovWYdSZybvVUTS0H-57" target="Mz4xzUT4oG2Xsr-lTTY3-6" edge="1">
          <mxGeometry relative="1" as="geometry">
            <mxPoint x="900" y="450" as="sourcePoint" />
            <mxPoint x="939.7993866871161" y="441.70375624905864" as="targetPoint" />
          </mxGeometry>
        </mxCell>
        <mxCell id="Mz4xzUT4oG2Xsr-lTTY3-5" value="Products" style="ellipse;shape=doubleEllipse;margin=3;whiteSpace=wrap;html=1;align=center;" parent="1" vertex="1">
          <mxGeometry x="1240" y="620" width="100" height="40" as="geometry" />
        </mxCell>
        <mxCell id="Mz4xzUT4oG2Xsr-lTTY3-6" value="Total_Cost" style="ellipse;whiteSpace=wrap;html=1;align=center;" parent="1" vertex="1">
          <mxGeometry x="940" y="407.5" width="100" height="40" as="geometry" />
        </mxCell>
        <mxCell id="Mz4xzUT4oG2Xsr-lTTY3-7" value="Number_Of_Items" style="ellipse;whiteSpace=wrap;html=1;align=center;dashed=1;" parent="1" vertex="1">
          <mxGeometry x="82.5" y="317.5" width="115" height="40" as="geometry" />
        </mxCell>
        <mxCell id="Mz4xzUT4oG2Xsr-lTTY3-8" value="Days" style="ellipse;shape=doubleEllipse;margin=3;whiteSpace=wrap;html=1;align=center;" parent="1" vertex="1">
          <mxGeometry x="155" y="270" width="100" height="40" as="geometry" />
        </mxCell>
        <mxCell id="Mz4xzUT4oG2Xsr-lTTY3-10" value="" style="endArrow=none;html=1;rounded=0;exitX=0.5;exitY=1;exitDx=0;exitDy=0;entryX=0.5;entryY=0;entryDx=0;entryDy=0;" parent="1" source="Mz4xzUT4oG2Xsr-lTTY3-8" target="-TUUEZ4lwArsrJGdlQ5--48" edge="1">
          <mxGeometry relative="1" as="geometry">
            <mxPoint x="200" y="450" as="sourcePoint" />
            <mxPoint x="360" y="450" as="targetPoint" />
          </mxGeometry>
        </mxCell>
        <mxCell id="hg8LDhFlctm0esQl1vRO-1" value="BOOKS" style="shape=rhombus;perimeter=rhombusPerimeter;whiteSpace=wrap;html=1;align=center;" parent="1" vertex="1">
          <mxGeometry x="-860" y="186.25" width="120" height="60" as="geometry" />
        </mxCell>
        <mxCell id="hg8LDhFlctm0esQl1vRO-2" value="Booking_Date" style="ellipse;whiteSpace=wrap;html=1;align=center;" parent="1" vertex="1">
          <mxGeometry x="-940" y="132.5" width="95" height="40" as="geometry" />
        </mxCell>
        <mxCell id="hg8LDhFlctm0esQl1vRO-3" value="Number_Of_people" style="ellipse;whiteSpace=wrap;html=1;align=center;" parent="1" vertex="1">
          <mxGeometry x="-859.06" y="92.5" width="119.53" height="40" as="geometry" />
        </mxCell>
        <mxCell id="hg8LDhFlctm0esQl1vRO-4" value="" style="endArrow=none;html=1;rounded=0;exitX=1;exitY=1;exitDx=0;exitDy=0;entryX=0;entryY=0;entryDx=0;entryDy=0;" parent="1" source="hg8LDhFlctm0esQl1vRO-2" target="hg8LDhFlctm0esQl1vRO-1" edge="1">
          <mxGeometry relative="1" as="geometry">
            <mxPoint x="-720" y="350" as="sourcePoint" />
            <mxPoint x="-560" y="350" as="targetPoint" />
          </mxGeometry>
        </mxCell>
        <mxCell id="hg8LDhFlctm0esQl1vRO-5" value="" style="endArrow=none;html=1;rounded=0;exitX=0.5;exitY=1;exitDx=0;exitDy=0;entryX=0.5;entryY=0;entryDx=0;entryDy=0;" parent="1" source="hg8LDhFlctm0esQl1vRO-3" target="hg8LDhFlctm0esQl1vRO-1" edge="1">
          <mxGeometry relative="1" as="geometry">
            <mxPoint x="-720" y="350" as="sourcePoint" />
            <mxPoint x="-560" y="350" as="targetPoint" />
          </mxGeometry>
        </mxCell>
        <mxCell id="hg8LDhFlctm0esQl1vRO-7" value="" style="endArrow=none;html=1;rounded=0;exitX=1;exitY=0.25;exitDx=0;exitDy=0;entryX=0;entryY=0.5;entryDx=0;entryDy=0;fillColor=#f5f5f5;strokeColor=#666666;" parent="1" source="15D66pHCM-ideDCtoqZD-38" target="hg8LDhFlctm0esQl1vRO-1" edge="1">
          <mxGeometry relative="1" as="geometry">
            <mxPoint x="-720" y="350" as="sourcePoint" />
            <mxPoint x="-560" y="350" as="targetPoint" />
          </mxGeometry>
        </mxCell>
        <mxCell id="hg8LDhFlctm0esQl1vRO-8" value="N" style="resizable=0;html=1;whiteSpace=wrap;align=right;verticalAlign=bottom;" parent="hg8LDhFlctm0esQl1vRO-7" connectable="0" vertex="1">
          <mxGeometry x="1" relative="1" as="geometry" />
        </mxCell>
        <mxCell id="hg8LDhFlctm0esQl1vRO-9" value="" style="endArrow=none;html=1;rounded=0;entryX=1;entryY=0.5;entryDx=0;entryDy=0;fillColor=#f5f5f5;strokeColor=#666666;" parent="1" target="hg8LDhFlctm0esQl1vRO-1" edge="1">
          <mxGeometry relative="1" as="geometry">
            <mxPoint x="-501" y="216" as="sourcePoint" />
            <mxPoint x="-560" y="350" as="targetPoint" />
          </mxGeometry>
        </mxCell>
        <mxCell id="hg8LDhFlctm0esQl1vRO-10" value="1" style="resizable=0;html=1;whiteSpace=wrap;align=right;verticalAlign=bottom;" parent="hg8LDhFlctm0esQl1vRO-9" connectable="0" vertex="1">
          <mxGeometry x="1" relative="1" as="geometry" />
        </mxCell>
        <mxCell id="hg8LDhFlctm0esQl1vRO-11" value="" style="endArrow=none;html=1;rounded=0;entryX=0.5;entryY=1;entryDx=0;entryDy=0;" parent="1" target="hg8LDhFlctm0esQl1vRO-1" edge="1">
          <mxGeometry relative="1" as="geometry">
            <mxPoint x="-800" y="535" as="sourcePoint" />
            <mxPoint x="-560" y="350" as="targetPoint" />
          </mxGeometry>
        </mxCell>
        <mxCell id="hg8LDhFlctm0esQl1vRO-12" value="1" style="resizable=0;html=1;whiteSpace=wrap;align=right;verticalAlign=bottom;" parent="hg8LDhFlctm0esQl1vRO-11" connectable="0" vertex="1">
          <mxGeometry x="1" relative="1" as="geometry">
            <mxPoint x="-10" y="15" as="offset" />
          </mxGeometry>
        </mxCell>
        <mxCell id="_qrh6xiKY4EW2bpGudcf-1" value="Availabilty" style="ellipse;whiteSpace=wrap;html=1;align=center;" parent="1" vertex="1">
          <mxGeometry x="-1220" y="275" width="100" height="40" as="geometry" />
        </mxCell>
        <mxCell id="_qrh6xiKY4EW2bpGudcf-2" value="" style="endArrow=none;html=1;rounded=0;exitX=1;exitY=0.5;exitDx=0;exitDy=0;entryX=0;entryY=1;entryDx=0;entryDy=0;" parent="1" source="_qrh6xiKY4EW2bpGudcf-1" target="15D66pHCM-ideDCtoqZD-38" edge="1">
          <mxGeometry relative="1" as="geometry">
            <mxPoint x="-1220" y="510" as="sourcePoint" />
            <mxPoint x="-1060" y="510" as="targetPoint" />
          </mxGeometry>
        </mxCell>
        <mxCell id="_qrh6xiKY4EW2bpGudcf-3" value="Date" style="ellipse;whiteSpace=wrap;html=1;align=center;" parent="1" vertex="1">
          <mxGeometry x="406.25" y="-170" width="100" height="40" as="geometry" />
        </mxCell>
        <mxCell id="_qrh6xiKY4EW2bpGudcf-4" value="" style="endArrow=none;html=1;rounded=0;entryX=1;entryY=1;entryDx=0;entryDy=0;exitX=0.5;exitY=0;exitDx=0;exitDy=0;" parent="1" source="15D66pHCM-ideDCtoqZD-58" target="_qrh6xiKY4EW2bpGudcf-3" edge="1">
          <mxGeometry relative="1" as="geometry">
            <mxPoint x="-45" y="-85" as="sourcePoint" />
            <mxPoint x="-230" y="140" as="targetPoint" />
          </mxGeometry>
        </mxCell>
        <mxCell id="FYkvaaUTo1T55ycHntii-1" value="" style="endArrow=none;html=1;rounded=0;entryX=1;entryY=0.5;entryDx=0;entryDy=0;exitX=0;exitY=0.5;exitDx=0;exitDy=0;" parent="1" source="15D66pHCM-ideDCtoqZD-252" target="15D66pHCM-ideDCtoqZD-297" edge="1">
          <mxGeometry relative="1" as="geometry">
            <mxPoint x="-240" y="600" as="sourcePoint" />
            <mxPoint x="-80" y="600" as="targetPoint" />
          </mxGeometry>
        </mxCell>
        <mxCell id="FYkvaaUTo1T55ycHntii-2" value="N" style="resizable=0;html=1;whiteSpace=wrap;align=right;verticalAlign=bottom;" parent="FYkvaaUTo1T55ycHntii-1" connectable="0" vertex="1">
          <mxGeometry x="1" relative="1" as="geometry" />
        </mxCell>
        <mxCell id="FYkvaaUTo1T55ycHntii-3" value="" style="endArrow=none;html=1;rounded=0;entryX=0;entryY=0.75;entryDx=0;entryDy=0;" parent="1" target="_Os3ovWYdSZybvVUTS0H-57" edge="1">
          <mxGeometry relative="1" as="geometry">
            <mxPoint x="330" y="490" as="sourcePoint" />
            <mxPoint x="440" y="680" as="targetPoint" />
          </mxGeometry>
        </mxCell>
        <mxCell id="FYkvaaUTo1T55ycHntii-4" value="" style="endArrow=none;html=1;rounded=0;entryX=0.5;entryY=0;entryDx=0;entryDy=0;" parent="1" target="15D66pHCM-ideDCtoqZD-205" edge="1">
          <mxGeometry relative="1" as="geometry">
            <mxPoint x="330" y="490" as="sourcePoint" />
            <mxPoint x="440" y="680" as="targetPoint" />
          </mxGeometry>
        </mxCell>
        <mxCell id="FYkvaaUTo1T55ycHntii-5" value="N" style="resizable=0;html=1;whiteSpace=wrap;align=right;verticalAlign=bottom;" parent="FYkvaaUTo1T55ycHntii-4" connectable="0" vertex="1">
          <mxGeometry x="1" relative="1" as="geometry" />
        </mxCell>
        <mxCell id="bR9CyF9A_xtMfPqVnREq-2" value="Number_Of_Chefs" style="ellipse;whiteSpace=wrap;html=1;align=center;dashed=1;" parent="1" vertex="1">
          <mxGeometry x="672.5" y="825" width="130" height="40" as="geometry" />
        </mxCell>
        <mxCell id="bR9CyF9A_xtMfPqVnREq-3" value="" style="endArrow=none;html=1;rounded=0;entryX=1;entryY=1;entryDx=0;entryDy=0;exitX=0;exitY=0.5;exitDx=0;exitDy=0;" parent="1" source="bR9CyF9A_xtMfPqVnREq-7" target="_Os3ovWYdSZybvVUTS0H-38" edge="1">
          <mxGeometry relative="1" as="geometry">
            <mxPoint x="1412.5" y="877.04" as="sourcePoint" />
            <mxPoint x="1340" y="922.04" as="targetPoint" />
          </mxGeometry>
        </mxCell>
        <mxCell id="bR9CyF9A_xtMfPqVnREq-4" value="Email" style="ellipse;whiteSpace=wrap;html=1;align=center;" parent="1" vertex="1">
          <mxGeometry x="1340" y="870" width="100" height="40" as="geometry" />
        </mxCell>
        <mxCell id="bR9CyF9A_xtMfPqVnREq-5" value="" style="endArrow=none;html=1;rounded=0;entryX=1;entryY=1;entryDx=0;entryDy=0;exitX=0;exitY=0.5;exitDx=0;exitDy=0;" parent="1" source="bR9CyF9A_xtMfPqVnREq-4" target="_Os3ovWYdSZybvVUTS0H-38" edge="1">
          <mxGeometry relative="1" as="geometry">
            <mxPoint x="982.5" y="867.04" as="sourcePoint" />
            <mxPoint x="1340" y="922.04" as="targetPoint" />
          </mxGeometry>
        </mxCell>
        <mxCell id="bR9CyF9A_xtMfPqVnREq-7" value="Phone_Number" style="ellipse;whiteSpace=wrap;html=1;align=center;" parent="1" vertex="1">
          <mxGeometry x="1365" y="819.54" width="100" height="40" as="geometry" />
        </mxCell>
        <mxCell id="bR9CyF9A_xtMfPqVnREq-18" value="Phone_Number" style="ellipse;whiteSpace=wrap;html=1;align=center;" parent="1" vertex="1">
          <mxGeometry x="-345" y="17.5" width="100" height="40" as="geometry" />
        </mxCell>
        <mxCell id="bR9CyF9A_xtMfPqVnREq-19" value="Email" style="ellipse;whiteSpace=wrap;html=1;align=center;" parent="1" vertex="1">
          <mxGeometry x="-240" y="62.5" width="80" height="30" as="geometry" />
        </mxCell>
        <mxCell id="bR9CyF9A_xtMfPqVnREq-20" value="" style="endArrow=none;html=1;rounded=0;exitX=0.5;exitY=1;exitDx=0;exitDy=0;entryX=0.5;entryY=0;entryDx=0;entryDy=0;" parent="1" source="bR9CyF9A_xtMfPqVnREq-18" target="_Os3ovWYdSZybvVUTS0H-4" edge="1">
          <mxGeometry relative="1" as="geometry">
            <mxPoint x="-250" y="140" as="sourcePoint" />
            <mxPoint x="-90" y="140" as="targetPoint" />
          </mxGeometry>
        </mxCell>
        <mxCell id="bR9CyF9A_xtMfPqVnREq-21" value="" style="endArrow=none;html=1;rounded=0;entryX=0;entryY=1;entryDx=0;entryDy=0;exitX=1;exitY=0;exitDx=0;exitDy=0;" parent="1" source="_Os3ovWYdSZybvVUTS0H-4" target="bR9CyF9A_xtMfPqVnREq-19" edge="1">
          <mxGeometry relative="1" as="geometry">
            <mxPoint x="-250" y="140" as="sourcePoint" />
            <mxPoint x="-90" y="140" as="targetPoint" />
          </mxGeometry>
        </mxCell>
        <mxCell id="gsbOjJWvPHMS1eDhYIDU-1" value="SHIFT" style="shape=rhombus;perimeter=rhombusPerimeter;whiteSpace=wrap;html=1;align=center;" parent="1" vertex="1">
          <mxGeometry x="-227.5" y="1390" width="120" height="60" as="geometry" />
        </mxCell>
        <mxCell id="gsbOjJWvPHMS1eDhYIDU-2" value="Start-Time" style="ellipse;whiteSpace=wrap;html=1;align=center;" parent="1" vertex="1">
          <mxGeometry x="-280" y="1477.5" width="100" height="40" as="geometry" />
        </mxCell>
        <mxCell id="gsbOjJWvPHMS1eDhYIDU-3" value="End-Time" style="ellipse;whiteSpace=wrap;html=1;align=center;" parent="1" vertex="1">
          <mxGeometry x="-160" y="1477.5" width="100" height="40" as="geometry" />
        </mxCell>
        <mxCell id="gsbOjJWvPHMS1eDhYIDU-5" value="" style="endArrow=none;html=1;rounded=0;entryX=0;entryY=1;entryDx=0;entryDy=0;exitX=0.5;exitY=0;exitDx=0;exitDy=0;" parent="1" source="gsbOjJWvPHMS1eDhYIDU-2" target="gsbOjJWvPHMS1eDhYIDU-1" edge="1">
          <mxGeometry relative="1" as="geometry">
            <mxPoint x="-310" y="1430" as="sourcePoint" />
            <mxPoint x="-150" y="1430" as="targetPoint" />
          </mxGeometry>
        </mxCell>
        <mxCell id="gsbOjJWvPHMS1eDhYIDU-6" value="" style="endArrow=none;html=1;rounded=0;entryX=1;entryY=1;entryDx=0;entryDy=0;exitX=0.5;exitY=0;exitDx=0;exitDy=0;" parent="1" source="gsbOjJWvPHMS1eDhYIDU-3" target="gsbOjJWvPHMS1eDhYIDU-1" edge="1">
          <mxGeometry relative="1" as="geometry">
            <mxPoint x="-140" y="1487.5" as="sourcePoint" />
            <mxPoint x="-107" y="1444.5" as="targetPoint" />
          </mxGeometry>
        </mxCell>
        <mxCell id="gsbOjJWvPHMS1eDhYIDU-7" value="" style="endArrow=none;html=1;rounded=0;entryX=0;entryY=0;entryDx=0;entryDy=0;exitX=1;exitY=0.5;exitDx=0;exitDy=0;" parent="1" source="gsbOjJWvPHMS1eDhYIDU-1" target="15D66pHCM-ideDCtoqZD-310" edge="1">
          <mxGeometry relative="1" as="geometry">
            <mxPoint x="22.5" y="1390" as="sourcePoint" />
            <mxPoint x="182.5" y="1390" as="targetPoint" />
          </mxGeometry>
        </mxCell>
        <mxCell id="gsbOjJWvPHMS1eDhYIDU-9" value="" style="shape=link;html=1;rounded=0;exitX=0.5;exitY=0;exitDx=0;exitDy=0;" parent="1" source="gsbOjJWvPHMS1eDhYIDU-1" edge="1">
          <mxGeometry relative="1" as="geometry">
            <mxPoint x="-45" y="1315" as="sourcePoint" />
            <mxPoint x="140" y="1080" as="targetPoint" />
            <Array as="points">
              <mxPoint x="-167" y="1350" />
              <mxPoint x="140" y="1350" />
            </Array>
          </mxGeometry>
        </mxCell>
        <mxCell id="gsbOjJWvPHMS1eDhYIDU-11" value="" style="shape=link;html=1;rounded=0;exitX=0.899;exitY=1.019;exitDx=0;exitDy=0;entryX=0;entryY=0.5;entryDx=0;entryDy=0;exitPerimeter=0;" parent="1" source="_Os3ovWYdSZybvVUTS0H-77" target="gsbOjJWvPHMS1eDhYIDU-1" edge="1">
          <mxGeometry relative="1" as="geometry">
            <mxPoint x="-810" y="930" as="sourcePoint" />
            <mxPoint x="-650" y="930" as="targetPoint" />
            <Array as="points">
              <mxPoint x="-710" y="750" />
              <mxPoint x="-710" y="910" />
              <mxPoint x="-1110" y="910" />
              <mxPoint x="-1110" y="1170" />
              <mxPoint x="-1110" y="1420" />
            </Array>
          </mxGeometry>
        </mxCell>
        <mxCell id="gsbOjJWvPHMS1eDhYIDU-15" value="N" style="resizable=0;html=1;whiteSpace=wrap;align=right;verticalAlign=bottom;" parent="1" connectable="0" vertex="1">
          <mxGeometry x="-219.99999999999937" y="1410" as="geometry" />
        </mxCell>
        <mxCell id="gsbOjJWvPHMS1eDhYIDU-16" value="N" style="resizable=0;html=1;whiteSpace=wrap;align=right;verticalAlign=bottom;" parent="1" connectable="0" vertex="1">
          <mxGeometry x="-119.69999999999936" y="1420" as="geometry">
            <mxPoint x="24" y="19" as="offset" />
          </mxGeometry>
        </mxCell>
        <mxCell id="LAzCdswuM2P8rTGx8B4S-1" value="PAYS" style="rhombus;whiteSpace=wrap;html=1;fillColor=#f5f5f5;strokeColor=#666666;fontColor=#333333;" parent="1" vertex="1">
          <mxGeometry x="-52.5" y="-80" width="120" height="80" as="geometry" />
        </mxCell>
        <mxCell id="LAzCdswuM2P8rTGx8B4S-2" value="N" style="resizable=0;html=1;whiteSpace=wrap;align=right;verticalAlign=bottom;" parent="1" connectable="0" vertex="1">
          <mxGeometry x="-149.99999999999937" y="1390" as="geometry" />
        </mxCell>
        <mxCell id="XQ8m3M2_XjIIl89Nsq3--6" value="&lt;span style=&quot;border-bottom: 1px dotted&quot;&gt;Chef_ID&lt;/span&gt;" style="ellipse;whiteSpace=wrap;html=1;align=center;" vertex="1" parent="1">
          <mxGeometry x="-595" y="1295" width="79.49" height="30" as="geometry" />
        </mxCell>
        <mxCell id="XQ8m3M2_XjIIl89Nsq3--8" value="" style="endArrow=none;html=1;rounded=0;exitX=0.5;exitY=0;exitDx=0;exitDy=0;entryX=0;entryY=0.5;entryDx=0;entryDy=0;" edge="1" parent="1" source="XQ8m3M2_XjIIl89Nsq3--6" target="-TUUEZ4lwArsrJGdlQ5--26">
          <mxGeometry width="50" height="50" relative="1" as="geometry">
            <mxPoint x="-319.96000000000004" y="1265" as="sourcePoint" />
            <mxPoint x="-269.96000000000004" y="1215" as="targetPoint" />
          </mxGeometry>
        </mxCell>
        <mxCell id="XQ8m3M2_XjIIl89Nsq3--9" value="Emergency_Contact_Waiter" style="shape=ext;margin=3;double=1;whiteSpace=wrap;html=1;align=center;" vertex="1" parent="1">
          <mxGeometry x="-923.01" y="945.0000000000001" width="164.49" height="62.5" as="geometry" />
        </mxCell>
        <mxCell id="XQ8m3M2_XjIIl89Nsq3--10" value="&lt;span style=&quot;border-bottom: 1px dotted&quot;&gt;Name&lt;/span&gt;" style="ellipse;whiteSpace=wrap;html=1;align=center;" vertex="1" parent="1">
          <mxGeometry x="-956.44" y="1057.5" width="79.49" height="30" as="geometry" />
        </mxCell>
        <mxCell id="XQ8m3M2_XjIIl89Nsq3--11" value="" style="endArrow=none;html=1;rounded=0;exitX=0.5;exitY=0;exitDx=0;exitDy=0;entryX=0;entryY=1;entryDx=0;entryDy=0;" edge="1" parent="1" source="XQ8m3M2_XjIIl89Nsq3--10" target="XQ8m3M2_XjIIl89Nsq3--9">
          <mxGeometry relative="1" as="geometry">
            <mxPoint x="-827.46" y="907.5" as="sourcePoint" />
            <mxPoint x="-667.46" y="907.5" as="targetPoint" />
          </mxGeometry>
        </mxCell>
        <mxCell id="XQ8m3M2_XjIIl89Nsq3--12" value="Phone_Number" style="ellipse;whiteSpace=wrap;html=1;align=center;" vertex="1" parent="1">
          <mxGeometry x="-867.46" y="1067.5" width="100" height="30" as="geometry" />
        </mxCell>
        <mxCell id="XQ8m3M2_XjIIl89Nsq3--13" value="" style="endArrow=none;html=1;rounded=0;exitX=0.5;exitY=0;exitDx=0;exitDy=0;entryX=0.25;entryY=1;entryDx=0;entryDy=0;" edge="1" parent="1" source="XQ8m3M2_XjIIl89Nsq3--12" target="XQ8m3M2_XjIIl89Nsq3--9">
          <mxGeometry relative="1" as="geometry">
            <mxPoint x="-827.46" y="907.5" as="sourcePoint" />
            <mxPoint x="-667.46" y="907.5" as="targetPoint" />
          </mxGeometry>
        </mxCell>
        <mxCell id="XQ8m3M2_XjIIl89Nsq3--14" value="Relation" style="ellipse;whiteSpace=wrap;html=1;align=center;" vertex="1" parent="1">
          <mxGeometry x="-796.99" y="1037.5" width="65" height="20" as="geometry" />
        </mxCell>
        <mxCell id="XQ8m3M2_XjIIl89Nsq3--15" value="" style="endArrow=none;html=1;rounded=0;exitX=0.5;exitY=0;exitDx=0;exitDy=0;entryX=0.5;entryY=1;entryDx=0;entryDy=0;" edge="1" parent="1" source="XQ8m3M2_XjIIl89Nsq3--14" target="XQ8m3M2_XjIIl89Nsq3--9">
          <mxGeometry relative="1" as="geometry">
            <mxPoint x="-774.96" y="1037.5000000000005" as="sourcePoint" />
            <mxPoint x="-667.46" y="907.5" as="targetPoint" />
          </mxGeometry>
        </mxCell>
        <mxCell id="XQ8m3M2_XjIIl89Nsq3--16" value="Priority" style="ellipse;whiteSpace=wrap;html=1;align=center;" vertex="1" parent="1">
          <mxGeometry x="-740" y="1000" width="60" height="30" as="geometry" />
        </mxCell>
        <mxCell id="XQ8m3M2_XjIIl89Nsq3--17" value="" style="endArrow=none;html=1;rounded=0;exitX=0;exitY=0;exitDx=0;exitDy=0;entryX=0.75;entryY=1;entryDx=0;entryDy=0;" edge="1" parent="1" source="XQ8m3M2_XjIIl89Nsq3--16" target="XQ8m3M2_XjIIl89Nsq3--9">
          <mxGeometry relative="1" as="geometry">
            <mxPoint x="-642.5" y="907.5" as="sourcePoint" />
            <mxPoint x="-482.5" y="907.5" as="targetPoint" />
          </mxGeometry>
        </mxCell>
        <mxCell id="XQ8m3M2_XjIIl89Nsq3--18" value="&lt;span style=&quot;border-bottom: 1px dotted&quot;&gt;Waiter_ID&lt;/span&gt;" style="ellipse;whiteSpace=wrap;html=1;align=center;" vertex="1" parent="1">
          <mxGeometry x="-1002.5" y="1007.5000000000001" width="79.49" height="30" as="geometry" />
        </mxCell>
        <mxCell id="XQ8m3M2_XjIIl89Nsq3--19" value="" style="endArrow=none;html=1;rounded=0;exitX=0.5;exitY=0;exitDx=0;exitDy=0;entryX=0;entryY=0.5;entryDx=0;entryDy=0;" edge="1" parent="1" source="XQ8m3M2_XjIIl89Nsq3--18" target="XQ8m3M2_XjIIl89Nsq3--9">
          <mxGeometry width="50" height="50" relative="1" as="geometry">
            <mxPoint x="-727.46" y="977.5000000000001" as="sourcePoint" />
            <mxPoint x="-677.46" y="927.5" as="targetPoint" />
          </mxGeometry>
        </mxCell>
        <mxCell id="XQ8m3M2_XjIIl89Nsq3--20" value="" style="shape=link;html=1;rounded=0;entryX=1;entryY=1;entryDx=0;entryDy=0;exitX=1;exitY=0.5;exitDx=0;exitDy=0;" edge="1" parent="1" source="XQ8m3M2_XjIIl89Nsq3--9" target="-TUUEZ4lwArsrJGdlQ5--27">
          <mxGeometry relative="1" as="geometry">
            <mxPoint x="-746.29" y="1033.89" as="sourcePoint" />
            <mxPoint x="-615.29" y="978.89" as="targetPoint" />
            <Array as="points" />
          </mxGeometry>
        </mxCell>
        <mxCell id="XQ8m3M2_XjIIl89Nsq3--21" value="N" style="resizable=0;html=1;whiteSpace=wrap;align=right;verticalAlign=bottom;" connectable="0" vertex="1" parent="XQ8m3M2_XjIIl89Nsq3--20">
          <mxGeometry x="1" relative="1" as="geometry">
            <mxPoint y="-5" as="offset" />
          </mxGeometry>
        </mxCell>
        <mxCell id="XQ8m3M2_XjIIl89Nsq3--22" value="Emergency_Contact_Waiter" style="shape=ext;margin=3;double=1;whiteSpace=wrap;html=1;align=center;" vertex="1" parent="1">
          <mxGeometry x="-679.03" y="1102.5" width="164.49" height="62.5" as="geometry" />
        </mxCell>
        <mxCell id="XQ8m3M2_XjIIl89Nsq3--23" value="&lt;span style=&quot;border-bottom: 1px dotted&quot;&gt;Name&lt;/span&gt;" style="ellipse;whiteSpace=wrap;html=1;align=center;" vertex="1" parent="1">
          <mxGeometry x="-712.46" y="1215" width="79.49" height="30" as="geometry" />
        </mxCell>
        <mxCell id="XQ8m3M2_XjIIl89Nsq3--24" value="" style="endArrow=none;html=1;rounded=0;exitX=0.5;exitY=0;exitDx=0;exitDy=0;entryX=0;entryY=1;entryDx=0;entryDy=0;" edge="1" parent="1" source="XQ8m3M2_XjIIl89Nsq3--23" target="XQ8m3M2_XjIIl89Nsq3--22">
          <mxGeometry relative="1" as="geometry">
            <mxPoint x="-583.48" y="1065" as="sourcePoint" />
            <mxPoint x="-423.48" y="1065" as="targetPoint" />
          </mxGeometry>
        </mxCell>
        <mxCell id="XQ8m3M2_XjIIl89Nsq3--25" value="Phone_Number" style="ellipse;whiteSpace=wrap;html=1;align=center;" vertex="1" parent="1">
          <mxGeometry x="-623.48" y="1225" width="100" height="30" as="geometry" />
        </mxCell>
        <mxCell id="XQ8m3M2_XjIIl89Nsq3--26" value="" style="endArrow=none;html=1;rounded=0;exitX=0.5;exitY=0;exitDx=0;exitDy=0;entryX=0.25;entryY=1;entryDx=0;entryDy=0;" edge="1" parent="1" source="XQ8m3M2_XjIIl89Nsq3--25" target="XQ8m3M2_XjIIl89Nsq3--22">
          <mxGeometry relative="1" as="geometry">
            <mxPoint x="-583.48" y="1065" as="sourcePoint" />
            <mxPoint x="-423.48" y="1065" as="targetPoint" />
          </mxGeometry>
        </mxCell>
        <mxCell id="XQ8m3M2_XjIIl89Nsq3--27" value="Relation" style="ellipse;whiteSpace=wrap;html=1;align=center;" vertex="1" parent="1">
          <mxGeometry x="-553.01" y="1195" width="65" height="20" as="geometry" />
        </mxCell>
        <mxCell id="XQ8m3M2_XjIIl89Nsq3--28" value="" style="endArrow=none;html=1;rounded=0;exitX=0.5;exitY=0;exitDx=0;exitDy=0;entryX=0.5;entryY=1;entryDx=0;entryDy=0;" edge="1" parent="1" source="XQ8m3M2_XjIIl89Nsq3--27" target="XQ8m3M2_XjIIl89Nsq3--22">
          <mxGeometry relative="1" as="geometry">
            <mxPoint x="-530.98" y="1195.0000000000005" as="sourcePoint" />
            <mxPoint x="-423.48" y="1065" as="targetPoint" />
          </mxGeometry>
        </mxCell>
        <mxCell id="XQ8m3M2_XjIIl89Nsq3--29" value="Priority" style="ellipse;whiteSpace=wrap;html=1;align=center;" vertex="1" parent="1">
          <mxGeometry x="-496.02" y="1157.5" width="60" height="30" as="geometry" />
        </mxCell>
        <mxCell id="XQ8m3M2_XjIIl89Nsq3--30" value="" style="endArrow=none;html=1;rounded=0;exitX=0;exitY=0;exitDx=0;exitDy=0;entryX=0.75;entryY=1;entryDx=0;entryDy=0;" edge="1" parent="1" source="XQ8m3M2_XjIIl89Nsq3--29" target="XQ8m3M2_XjIIl89Nsq3--22">
          <mxGeometry relative="1" as="geometry">
            <mxPoint x="-398.52" y="1065" as="sourcePoint" />
            <mxPoint x="-238.52" y="1065" as="targetPoint" />
          </mxGeometry>
        </mxCell>
        <mxCell id="XQ8m3M2_XjIIl89Nsq3--31" value="&lt;span style=&quot;border-bottom: 1px dotted&quot;&gt;Waiter_ID&lt;/span&gt;" style="ellipse;whiteSpace=wrap;html=1;align=center;" vertex="1" parent="1">
          <mxGeometry x="-758.52" y="1165" width="79.49" height="30" as="geometry" />
        </mxCell>
        <mxCell id="XQ8m3M2_XjIIl89Nsq3--32" value="" style="endArrow=none;html=1;rounded=0;exitX=0.5;exitY=0;exitDx=0;exitDy=0;entryX=0;entryY=0.5;entryDx=0;entryDy=0;" edge="1" parent="1" source="XQ8m3M2_XjIIl89Nsq3--31" target="XQ8m3M2_XjIIl89Nsq3--22">
          <mxGeometry width="50" height="50" relative="1" as="geometry">
            <mxPoint x="-483.48" y="1135" as="sourcePoint" />
            <mxPoint x="-433.48" y="1085" as="targetPoint" />
          </mxGeometry>
        </mxCell>
        <mxCell id="XQ8m3M2_XjIIl89Nsq3--34" value="" style="shape=link;html=1;rounded=0;entryX=0;entryY=0.5;entryDx=0;entryDy=0;exitX=1;exitY=0.75;exitDx=0;exitDy=0;" edge="1" parent="1" source="XQ8m3M2_XjIIl89Nsq3--22" target="-TUUEZ4lwArsrJGdlQ5--28">
          <mxGeometry relative="1" as="geometry">
            <mxPoint x="-510" y="1137.5" as="sourcePoint" />
            <mxPoint x="-345" y="1142.5" as="targetPoint" />
            <Array as="points" />
          </mxGeometry>
        </mxCell>
        <mxCell id="XQ8m3M2_XjIIl89Nsq3--35" value="N" style="resizable=0;html=1;whiteSpace=wrap;align=right;verticalAlign=bottom;" connectable="0" vertex="1" parent="XQ8m3M2_XjIIl89Nsq3--34">
          <mxGeometry x="1" relative="1" as="geometry">
            <mxPoint y="-5" as="offset" />
          </mxGeometry>
        </mxCell>
      </root>
    </mxGraphModel>
  </diagram>
</mxfile>
